<?xml version="1.0" encoding="utf-8"?>
<!-- Generator: Adobe Illustrator 22.1.0, SVG Export Plug-In . SVG Version: 6.00 Build 0)  -->
<svg version="1.1" id="Слой_1" xmlns="http://www.w3.org/2000/svg" xmlns:xlink="http://www.w3.org/1999/xlink" x="0px" y="0px"
	 viewBox="0 0 499.9 500" enable-background="new 0 0 499.9 500" xml:space="preserve">
<title>broken-cable</title>
<g>
	<path d="M311.7,272.9l-2.4,0.4c0.2,3.6,0.1,7.2-0.3,10.7c-0.2,1.8-0.6,3.5-0.9,5.2c-0.5,1.7-0.9,3.4-1.5,5.1
		c-1.1,3.3-2.5,6.5-4.3,9.5c-0.4,0.8-0.9,1.5-1.3,2.2c-0.5,0.7-0.9,1.5-1.4,2.2c-0.5,0.6-1,1.3-1.5,2c-0.3,0.4-0.5,0.7-0.8,1
		c0,0.1-0.1,0.1-0.1,0.1c-2.3,1.8-4.3,3.8-6.1,6.1c-1.8,2.3-3.4,4.9-4.6,7.5s-2.3,5.3-3.1,8c-0.3,1.3-0.7,2.7-1,4h-10
		c0.3-1.6,0.6-3.3,0.9-4.9c0.5-2.9,1-5.9,1.4-8.9c0.8-6,1.5-12,2-18l0.4-4.5l0.2-2.4c0-0.9,0-1.6,0-2.4c-0.1-3.2-0.4-6.4-1-9.5
		c-0.5-3.2-1.5-6.3-2.8-9.3c-0.7-1.5-1.6-3-2.6-4.3c-1-1.4-2.4-2.4-3.9-3.2l-0.7,0.9c0.8,1.2,1.3,2.5,1.6,3.9
		c0.3,1.4,0.5,2.7,0.6,4.1c0.2,2.8,0.1,5.7,0,8.5c-0.2,2.8-0.5,5.7-0.8,8.5c-0.1,0.7-0.2,1.4-0.3,2.1v0.1v0.3l-0.1,0.5l-0.2,1.1
		l-0.8,4.4c-1.1,5.9-2,11.8-2.8,17.8c-0.4,2.9-0.7,5.9-1,8.9c-0.2,2.1-0.4,4.2-0.5,6.3h-5.7c-0.2-0.3-0.4-0.6-0.6-0.9
		c-0.7-1.2-1.3-2.4-1.9-3.7c-1.2-2.8-2.2-5.6-3.1-8.4c-0.9-2.9-1.8-5.9-2.5-8.9c-0.4-1.5-0.7-3-1-4.5c-0.3-1.4-0.5-2.9-0.6-4.3v-0.5
		v-0.4c-0.1-0.6,0-1.1-0.1-1.7c0-0.5-0.1-0.9-0.2-1.4c-0.1-0.4-0.2-0.9-0.3-1.3c-0.4-1.6-0.9-3.2-1.3-4.8c-1-3.1-2-6.1-3.2-9.1
		c-2.2-6-4.5-11.8-7-17.7l-1.6,0.5c1.8,6,3.5,12.1,5,18.2c0.8,3,1.5,6.1,2.1,9.1c0.3,1.5,0.5,3,0.7,4.5c0.1,0.4,0.1,0.7,0.1,1
		s0,0.7,0,1c0,0.2,0,0.5,0,0.7l-0.1,0.8v0.7c0,1.7,0,3.4,0.2,5.1c0.1,1.7,0.3,3.3,0.5,4.9c0.4,3.2,0.9,6.4,1.6,9.6
		c0.6,3.3,1.5,6.5,2.4,9.6c0.4,1.2,0.8,2.4,1.3,3.6v72.9c0,0.2-0.1,0.4-0.2,0.6c-0.1,0.4-0.2,0.8-0.3,1.2c-0.3,0.8-0.5,1.6-0.8,2.4
		c-0.6,1.6-1.3,3.1-2,4.7c-1.5,3-3.2,6-5.2,8.7c-4,5.5-9,10.1-14.7,13.8c-5.8,3.6-12.2,6.2-18.9,7.7c-6.8,1.5-13.8,2.2-20.8,2h-0.5
		l-0.5,0.1c-0.5,0.1-1.1,0.2-1.8,0.3c-0.6,0.1-1.3,0.2-1.9,0.2c-1.3,0.1-2.6,0.2-3.9,0.2c-2.6,0.1-5.2,0.1-7.8-0.1
		c-5.2-0.3-10.3-1.2-15.3-2.7c-9.8-2.8-18.5-8.6-24.9-16.5c-3.1-4-5.7-8.5-7.6-13.2l-1.4-3.6c-0.2-0.6-0.4-1.2-0.6-1.8l-0.5-1.9
		c-0.7-2.5-1.3-5.1-1.8-7.6c-0.3-1.3-0.4-2.6-0.6-3.9l-0.5-3.9c-0.2-2.7-0.5-5.4-0.5-8s0-5.3,0-8l0.2-3.4h17v-50h50.9v-5l-0.3-222.7
		v-5h-27.6l0-91.1V0H28.2v96.3H0V329h53.5v50h13.1c0,0.5,0,0.9,0,1.4c0.1,2.2,0.2,4.3,0.3,6.5c0.3,4.3,0.7,8.5,1.3,12.8
		c1.2,8.5,3.1,16.9,5.6,25.2c2.5,8.3,5.9,16.3,10.1,23.9c4.2,7.7,9.4,14.8,15.4,21.2c6.1,6.4,13.1,11.8,20.7,16.2l2.9,1.6l1.4,0.8
		c0.5,0.3,1,0.5,1.5,0.7l6,2.7c4.1,1.6,8.3,2.9,12.5,4s8.5,2,12.8,2.6c1.1,0.2,2.1,0.3,3.2,0.4l3.2,0.3c2.1,0.2,4.3,0.5,6.5,0.5
		l6.4,0.2c1.1,0,2.2,0,3.3,0s2.2-0.1,3.3-0.1c4.4-0.3,8.6-0.8,12.9-1.4c8.5-1.3,16.9-3.4,25.1-6.3c8.2-2.8,16.1-6.6,23.6-11.1
		c7.5-4.6,14.3-10.2,20.3-16.7s11-13.8,14.9-21.7c3.9-7.9,6.8-16.1,8.7-24.7c0.4-2.1,0.8-4.3,1.2-6.4c0.2-1.1,0.4-2.1,0.5-3.2
		l0.3-3.2c0.2-2.2,0.5-4.3,0.7-6.5l0.3-6.5l0.1-3.2v-46.4c0-0.4,0.1-1,0.2-1.6s0.2-1.1,0.3-1.7c0.2-1.1,0.5-2.3,0.9-3.4
		c0.7-2.2,1.5-4.4,2.5-6.5c1-2,2.1-3.9,3.5-5.7c1.3-1.7,2.9-3.2,4.6-4.5l0.6-0.5l0.3-0.4c0.2-0.3,0.3-0.5,0.5-0.8
		c0.1-0.2,0.3-0.5,0.4-0.7c0.3-0.5,0.5-0.9,0.7-1.4c0.5-0.9,0.9-1.8,1.3-2.7c0.4-0.9,0.8-1.8,1.2-2.7s0.7-1.8,1-2.8
		c1.3-3.7,2.3-7.5,2.9-11.4c0.4-1.9,0.7-3.8,0.7-5.8s0.2-3.9,0-5.8C313.1,280.4,312.6,276.6,311.7,272.9z M76.7,369H73h-9.6v-40
		h57.2v40h-13.1l0,0H76.7z M143.5,96.3H38.2V10h105.7L143.5,96.3z M38.2,106.3L38.2,106.3h105.3l0,0h27.7l0.3,212.7h-46h-4.9H63.5
		h-5H10V106.3H38.2z M281.5,391.8l-0.2,6c-0.2,2-0.4,4-0.6,6l-0.3,3c-0.1,1-0.3,2-0.5,3c-0.4,2-0.7,3.9-1.1,5.9
		c-1.7,7.7-4.4,15.2-7.8,22.4c-3.5,7.1-8,13.6-13.3,19.4c-5.4,5.8-11.5,10.8-18.2,15c-6.8,4.2-14,7.6-21.5,10.2
		c-7.6,2.7-15.4,4.6-23.3,5.8c-3.9,0.6-7.9,1.1-11.9,1.3c-1,0-1.9,0-2.9,0.1s-2,0-3,0l-6.1-0.1c-2,0-4-0.3-6-0.5l-3-0.3
		c-1-0.1-2-0.1-3-0.4c-3.9-0.6-7.8-1.4-11.7-2.4c-3.8-1-7.6-2.2-11.3-3.6l-5.4-2.4c-0.4-0.2-0.9-0.4-1.3-0.6l-1.3-0.7l-2.6-1.4
		c-6.8-3.9-13-8.8-18.5-14.5c-10.9-11.3-18.5-25.9-23.2-41.2c-2.4-7.7-4.1-15.6-5.2-23.6c-0.6-4-1-8.1-1.3-12.1c-0.1-2-0.2-4-0.3-6
		c0-0.4,0-0.8,0-1.1h27.2l-0.2,3.3c-0.1,2.9-0.1,5.7,0,8.6s0.4,5.8,0.6,8.7l0.6,4.3c0.2,1.4,0.3,2.9,0.7,4.3c0.5,2.9,1.2,5.8,2,8.6
		l0.6,2.1c0.2,0.7,0.4,1.4,0.7,2.1l1.6,4.2c2.3,5.6,5.4,10.8,9.1,15.6c3.8,4.8,8.3,8.9,13.5,12.2c5.1,3.3,10.6,5.8,16.4,7.6
		c5.7,1.7,11.6,2.7,17.5,3.1c2.9,0.2,5.9,0.2,8.8,0.1c1.4,0,3-0.1,4.4-0.3c0.7-0.1,1.5-0.1,2.2-0.2c0.6-0.1,1.2-0.1,1.9-0.3
		c7.6,0.1,15.2-0.6,22.7-2.3c7.8-1.7,15.2-4.8,21.9-9c6.8-4.3,12.7-9.8,17.5-16.3c2.4-3.2,4.4-6.7,6.2-10.3c0.9-1.8,1.6-3.7,2.4-5.5
		c0.4-1,0.7-1.9,1-2.9c0.2-0.5,0.3-1,0.4-1.5s0.3-1,0.4-1.7l0.1-0.5v-66H282v41.8L281.5,391.8z"/>
	<polygon points="106.8,217.9 59.2,266.5 66.4,273.5 122.6,216 131.3,207.1 118.9,207.5 74.6,208.9 120,160 118.1,158 59.3,210.7 
		49.3,219.6 63,219.2 	"/>
	<path d="M471.3,30.4c-0.6-0.7-1.2-1.4-1.8-2.2C454.2,10.3,431.9,0,408.3,0c-0.1,0-0.2,0-0.3,0h-51.3c-0.1,0-0.2,0-0.3,0
		c-17.1,0-34.1,4.4-49,12.8c-21.5,12.1-47.8,34.3-51.4,71.1v80.4c-2.3,3.4-4.4,6.8-6.6,10.3c-1.8,3-3.6,6-5.2,9.1
		c-0.8,1.6-1.6,3.2-2.4,4.8c-0.8,1.7-1.5,3.5-2,5.3c-0.3,1.1-0.5,2.3-0.4,3.5c0,0.2,0,0.4,0.1,0.6c0,0.2,0.1,0.5,0.2,0.7
		s0.2,0.5,0.2,0.6v0.1l0.1,0.1v0.2c0,0.1,0.1,0.3,0.1,0.4c0.2,1.5,0.2,3.1,0.1,4.6c-0.3,3.4-0.7,6.7-1.3,10
		c-1.2,6.7-2.7,13.4-4.4,20.1l1.5,0.5c2.4-6.5,4.6-13,6.5-19.7c1-3.4,1.8-6.8,2.4-10.3c0.4-1.9,0.5-3.8,0.4-5.7
		c0-0.3-0.1-0.6-0.1-0.9l-0.1-0.4l-0.1-0.5l-0.1-0.5l0,0v-0.1c0.1-0.5,0.2-1.1,0.4-1.6c0.6-1.4,1.3-2.8,2.1-4.2s1.7-2.8,2.6-4.2
		c1.9-2.8,3.9-5.5,5.9-8.2c3.1-4.1,6.3-8.1,9.6-12h8.2c0.4,5.1,0.7,10.4,0.8,15.5c0.1,2.9,0.1,5.9-0.1,8.7c-0.1,1.4-0.2,2.8-0.4,4.2
		c-0.1,0.7-0.2,1.3-0.3,1.9c-0.1,0.5-0.2,0.9-0.4,1.4c0,0.1,0.1,0-0.2,0.4c-0.2,0.2-0.3,0.5-0.5,0.8l-0.3,0.7l-0.3,0.7
		c-0.3,0.8-0.5,1.7-0.6,2.6c-0.3,1.6-0.4,3.2-0.4,4.8c-0.1,3.1,0.1,6.2,0.4,9.3s0.9,6.1,1.7,9.1c0.4,1.5,0.9,3,1.5,4.4
		c0.6,1.5,1.5,3,2.7,4.1l1.4-1.4c-0.8-1.1-1.4-2.3-1.7-3.6c-0.4-1.4-0.7-2.8-0.9-4.2c-0.4-2.9-0.6-5.8-0.6-8.7s0.2-5.8,0.5-8.6
		c0.2-1.4,0.5-2.7,0.8-4c0.2-0.6,0.4-1.2,0.6-1.7l0.2-0.3l0.2-0.3c0.2-0.2,0.4-0.5,0.6-0.8c0.6-0.9,1-1.8,1.3-2.8
		c0.3-0.8,0.5-1.6,0.7-2.5c0.4-1.6,0.7-3.2,0.9-4.7c0.5-3.1,0.8-6.2,1.1-9.2c0.5-5.3,0.8-10.5,1-15.8h4.8c2.3,4.6,4.4,9.3,6.3,14
		c1.1,2.8,2.1,5.6,2.9,8.4c0.9,2.7,1.4,5.5,1.7,8.4c0.2,3.2,0.6,6.4,1.3,9.5c0.6,3.1,1.4,6.1,2.3,9.2c0.9,3,2,6,3.4,8.8
		c0.7,1.4,1.5,2.8,2.4,4.1c0.5,0.7,1,1.3,1.6,1.9c0.6,0.6,1.3,1.1,2.1,1.4l0.5-1c-1.2-0.8-2.1-1.9-2.7-3.2c-0.7-1.3-1.3-2.7-1.7-4.1
		c-0.9-2.9-1.7-5.8-2.2-8.8s-0.9-6-1.1-9s-0.3-5.9-0.1-8.9c0.1-3.3-0.1-6.6-0.7-9.9c-0.5-3.2-1.2-6.3-2-9.3c-1-4-2.2-7.8-3.5-11.7
		l0-0.2l0.3-63.2c-0.1-18.9,8.1-36.8,22.6-48.9c7.1-5.9,14.5-9.2,21.9-9.7h68.1c0.7,0,11,0.5,21.6,6c14.4,7.5,22.3,20.4,23.4,38.5
		L456,486.4v10h43.9v-384C500,82.7,489.9,53.6,471.3,30.4z M489.9,486.4H466l0.2-397.1V89c-1.7-27.3-16.6-40.6-28.8-46.9
		c-13-6.7-25.5-7.1-26.1-7.1h-68.4h-0.3c-9.6,0.6-18.9,4.7-27.8,12c-16.8,14.1-26.4,34.7-26.2,56.6V157h-22.7V84.6
		c3.3-32.4,27-52.2,46.4-63.1c13.5-7.6,28.9-11.6,44.4-11.5H408c0.1,0,0.2,0,0.3,0c20.7,0,40.2,9,53.6,24.7c0.6,0.7,1.1,1.4,1.7,2
		c17.1,21.4,26.5,48.3,26.3,75.7V486.4z"/>
</g>
</svg>
