<svg xmlns="http://www.w3.org/2000/svg" viewBox="0 0 499.92 500"><defs><style>.cls-1{fill:none;stroke:#000;stroke-miterlimit:10;stroke-width:10px;}</style></defs><title>broken-cable</title><g id="Слой_2" data-name="Слой 2"><g id="Слой_2-2" data-name="Слой 2"><path d="M286.55,347h-35l5-5v71.2l-.1.45c-.15.7-.27,1.14-.41,1.67s-.28,1-.44,1.49c-.3,1-.63,1.93-1,2.88-.71,1.88-1.49,3.73-2.36,5.53a65.71,65.71,0,0,1-6.17,10.25,63.68,63.68,0,0,1-17.46,16.28,70.41,70.41,0,0,1-21.94,9,96,96,0,0,1-23.19,2.3l1-.08c-.91.16-1.59.24-2.37.34s-1.49.17-2.23.23c-1.48.13-3,.22-4.43.27a84.51,84.51,0,0,1-8.84-.14,78.82,78.82,0,0,1-17.5-3.1,63.66,63.66,0,0,1-16.38-7.56,57,57,0,0,1-13.46-12.23,67.58,67.58,0,0,1-9.05-15.58L108.63,421a19.31,19.31,0,0,1-.69-2.11l-.61-2.13a85.5,85.5,0,0,1-2-8.58c-.34-1.43-.46-2.88-.67-4.32l-.58-4.33c-.19-2.88-.43-5.77-.55-8.66s-.08-5.76,0-8.62l.41-8.57.22-4.63h21.5l-5,5V319h55.93l-5,5-.33-222.72,5,5H143.53l0-5L143.88,5l5,5H33.21l5-5V106.28H5l5-5V324l-5-5H63.46v55l-5-5H76.73l-.2,5.25c-.07,1.8-.06,3.91,0,5.88s.14,4,.28,6c.25,4,.69,8.06,1.25,12.06a153.6,153.6,0,0,0,5.21,23.6C88,437.15,95.54,451.66,106.46,463a82.22,82.22,0,0,0,18.48,14.46l2.57,1.43,1.29.72c.43.23.9.41,1.34.62l5.39,2.42a102.63,102.63,0,0,0,11.3,3.62,109.11,109.11,0,0,0,11.69,2.39c1,.21,2,.25,3,.36l3,.29c2,.17,4,.47,6,.45l6.06.15c1,0,2,.07,3,0s1.95-.07,2.94-.12c4-.23,8-.69,11.94-1.3a131.65,131.65,0,0,0,23.33-5.85,109.59,109.59,0,0,0,21.54-10.23,88.22,88.22,0,0,0,18.22-15,82,82,0,0,0,13.3-19.39,100.68,100.68,0,0,0,7.85-22.37c.42-1.95.72-3.93,1.09-5.89.17-1,.37-2,.51-3l.32-3c.2-2,.46-4,.62-6l.24-6,.12-3V341.73l0-.21c.1-.91.2-1.55.33-2.29s.26-1.42.41-2.12c.29-1.4.65-2.78,1-4.15a54,54,0,0,1,3.08-8,42.17,42.17,0,0,1,4.64-7.53,35.63,35.63,0,0,1,6.51-6.42l-1,1h0c.07-.06.21-.22.33-.36s.25-.29.38-.45c.26-.31.52-.63.77-1,.52-.65,1-1.35,1.5-2s.95-1.42,1.42-2.15.9-1.47,1.32-2.23a55.3,55.3,0,0,0,4.27-9.53c.62-1.65,1-3.36,1.49-5.06.33-1.72.77-3.46.94-5.22a53.62,53.62,0,0,0,.33-10.74l2.38-.4a57.06,57.06,0,0,1,1.59,11.32c.15,1.93,0,3.85,0,5.79s-.31,3.88-.67,5.79a62.44,62.44,0,0,1-2.91,11.37c-.33.93-.7,1.84-1.05,2.77s-.77,1.83-1.19,2.73-.86,1.81-1.34,2.7c-.23.45-.49.9-.74,1.35-.12.22-.26.45-.4.69s-.27.45-.48.76h0l-.33.44-.65.52a25.7,25.7,0,0,0-4.56,4.51,32.18,32.18,0,0,0-3.52,5.73,44.08,44.08,0,0,0-2.49,6.51c-.33,1.13-.62,2.27-.86,3.41-.13.57-.23,1.14-.33,1.71s-.19,1.19-.23,1.57l0-.48v46.9l-.12,3.23-.27,6.47c-.17,2.15-.44,4.3-.66,6.45l-.35,3.22c-.15,1.07-.37,2.14-.55,3.21-.4,2.13-.73,4.28-1.18,6.4a110.67,110.67,0,0,1-8.67,24.69,92.06,92.06,0,0,1-14.9,21.7A98.23,98.23,0,0,1,244.57,481,119.56,119.56,0,0,1,221,492.14a141.63,141.63,0,0,1-25.1,6.3c-4.27.66-8.55,1.15-12.91,1.41-1.09.06-2.18.11-3.3.14s-2.22,0-3.29,0l-6.43-.16c-2.14,0-4.3-.3-6.45-.48l-3.23-.32c-1.08-.12-2.16-.17-3.22-.39A119.1,119.1,0,0,1,144.3,496a112.53,112.53,0,0,1-12.49-4l-6-2.7c-.5-.23-1-.44-1.5-.69l-1.44-.8L120,486.17a92.24,92.24,0,0,1-20.74-16.24,100.69,100.69,0,0,1-15.43-21.19,128.47,128.47,0,0,1-10.07-23.94,163.56,163.56,0,0,1-5.57-25.17c-.6-4.25-1.06-8.52-1.33-12.8q-.22-3.21-.3-6.45c-.05-2.19-.07-4.25,0-6.62l5,5.25H53.46V324l5,5H0V96.28H33.21l-5,5V0H153.9l0,5-.33,96.28-5-5H181.2v5L181.55,324v5H125.61l5-5v55H108.88l5-4.63-.39,8.08c0,2.69,0,5.37,0,8s.34,5.32.51,8l.53,3.93c.2,1.31.29,2.64.61,3.91a75.58,75.58,0,0,0,1.79,7.64l.54,1.88a15.28,15.28,0,0,0,.6,1.85l1.37,3.62a57.63,57.63,0,0,0,7.63,13.16A49.73,49.73,0,0,0,152,450.93a68.86,68.86,0,0,0,15.27,2.69,74.54,74.54,0,0,0,7.83.13c1.3,0,2.61-.12,3.89-.23.65,0,1.28-.13,1.92-.19s1.3-.17,1.76-.25l.52-.09h.47a86.07,86.07,0,0,0,20.77-2,60.41,60.41,0,0,0,18.86-7.67A53.66,53.66,0,0,0,238,429.56a55.72,55.72,0,0,0,5.23-8.69c.74-1.52,1.4-3.08,2-4.65.29-.79.56-1.57.81-2.36.12-.39.24-.78.34-1.17s.21-.82.26-1l-.1,1V337h40Z"/><line class="cls-1" x1="33.21" y1="101.28" x2="148.88" y2="101.28"/><line class="cls-1" x1="73.05" y1="374" x2="107.55" y2="374"/><line class="cls-1" x1="58.46" y1="324" x2="125.61" y2="324"/><polygon points="59.22 266.5 115.47 209 119.2 217.5 62.95 219.23 49.27 219.65 59.29 210.66 118.06 158 120.03 160 66.3 217.8 62.64 209.23 118.89 207.5 131.3 207.12 122.62 216 66.37 273.5 59.22 266.5"/><path d="M261.59,339.67c.11-3,.34-6,.64-9s.63-6,1-8.94q1.16-8.92,2.79-17.79l.83-4.43.21-1.11.11-.55.05-.28,0-.14s0,0,0,0,0,0,0,0c.1-.64.2-1.36.28-2.06.34-2.82.61-5.68.79-8.52a67.44,67.44,0,0,0,.05-8.47,24.13,24.13,0,0,0-.59-4.11,11.73,11.73,0,0,0-1.59-3.86l.7-.9a10.68,10.68,0,0,1,3.93,3.18,21.58,21.58,0,0,1,2.6,4.31,39.57,39.57,0,0,1,2.81,9.32,60.18,60.18,0,0,1,1,9.5c0,.8,0,1.59,0,2.44l-.18,2.42-.37,4.5q-.79,9-2,18c-.42,3-.85,6-1.39,8.93S272.19,338,271.5,341Z"/><path d="M234.36,269.7c2.46,5.84,4.82,11.7,7,17.66,1.1,3,2.18,6,3.15,9.06.47,1.55.93,3.11,1.32,4.75.11.39.17.85.26,1.29s.17.84.21,1.37,0,1.1.05,1.66v.39l0,.47a40.55,40.55,0,0,0,.61,4.31c.28,1.48.6,3,1,4.47.71,3,1.54,6,2.46,8.86a82.72,82.72,0,0,0,3.14,8.44,32,32,0,0,0,1.9,3.69,10,10,0,0,0,1,1.36c.26.3.61.5.27.22l-5.07,8.62c-.38-.26-.75-.53-1.1-.82s-.54-.52-.8-.79a7.42,7.42,0,0,1-.63-.76c-.18-.24-.4-.5-.53-.73a20.07,20.07,0,0,1-1.49-2.67,41.3,41.3,0,0,1-1.91-5,91.07,91.07,0,0,1-2.44-9.63c-.64-3.2-1.16-6.4-1.57-9.62-.2-1.61-.37-3.23-.5-4.88a45.25,45.25,0,0,1-.15-5.12l0-.71.09-.79a6.46,6.46,0,0,1,0-.71c0-.26,0-.66,0-1s0-.67-.09-1.05c-.18-1.46-.45-3-.73-4.48-.6-3-1.33-6.08-2.09-9.12-1.54-6.08-3.25-12.16-5-18.2Z"/><path class="cls-1" d="M456,491.43h38.88V112.35a125,125,0,0,0-27.44-78.81q-.86-1.05-1.74-2.1A75.58,75.58,0,0,0,408,5H356.7a95.39,95.39,0,0,0-46.89,12.14c-20.62,11.63-45.5,32.63-48.93,67.19V162h32.67V103.66A68.32,68.32,0,0,1,318,50.86c7-5.8,15.4-10.23,24.88-10.86h68.33s47,1,50,49.33L461,491.43"/><path d="M296,160.59c2.21,6,4.1,11.92,5.7,18.07.8,3.06,1.51,6.15,2,9.33a44.59,44.59,0,0,1,.73,9.87,63.36,63.36,0,0,0,.1,8.87,88.1,88.1,0,0,0,1.13,9,61.53,61.53,0,0,0,2.17,8.76,27.72,27.72,0,0,0,1.73,4.1,7.85,7.85,0,0,0,2.7,3.18l-.45,1a6.36,6.36,0,0,1-2.1-1.44,13.45,13.45,0,0,1-1.57-1.88,29.57,29.57,0,0,1-2.37-4.14,64.22,64.22,0,0,1-3.35-8.82,92,92,0,0,1-2.29-9.15,68.27,68.27,0,0,1-1.25-9.5,38.9,38.9,0,0,0-1.67-8.37c-.82-2.82-1.83-5.63-2.93-8.42-2.18-5.55-4.75-11.13-7.43-16.38Z"/><path d="M283.29,164.59c-.17,6.14-.5,12.15-1.05,18.24-.28,3-.62,6.09-1.12,9.17-.25,1.54-.54,3.09-.94,4.69a25.46,25.46,0,0,1-.72,2.45,11.87,11.87,0,0,1-1.32,2.77,6.85,6.85,0,0,1-.57.77l-.18.27-.17.35a11.22,11.22,0,0,0-.63,1.72,30.46,30.46,0,0,0-.83,4,61.5,61.5,0,0,0-.55,8.63,60.39,60.39,0,0,0,.62,8.7,31.39,31.39,0,0,0,.91,4.2,10.19,10.19,0,0,0,1.73,3.6l-1.36,1.39a12.06,12.06,0,0,1-2.67-4.14,34,34,0,0,1-1.5-4.43,63.75,63.75,0,0,1-1.69-9.07,65.92,65.92,0,0,1-.44-9.28,35.66,35.66,0,0,1,.44-4.83,16.93,16.93,0,0,1,.63-2.58l.25-.69.33-.73a8,8,0,0,1,.45-.77c.24-.35.14-.27.18-.35a8.24,8.24,0,0,0,.4-1.36c.13-.58.24-1.24.33-1.91.17-1.34.28-2.76.35-4.18.13-2.86.13-5.79.08-8.72-.13-5.85-.47-11.81-1-17.62Z"/><path d="M268.47,163.22c-4.4,5.08-8.74,10.39-12.84,15.76-2,2.7-4,5.42-5.89,8.19-.93,1.38-1.8,2.79-2.62,4.19a29.4,29.4,0,0,0-2.06,4.16,7.78,7.78,0,0,0-.42,1.56s0,.11,0,.09a0,0,0,0,0,0,0s0-.06,0,0l.14.5.13.5.06.44c0,.28.09.6.09.85a26.75,26.75,0,0,1-.45,5.69,101.78,101.78,0,0,1-2.42,10.26c-1.9,6.69-4.1,13.22-6.47,19.71l-1.47-.46c1.68-6.64,3.19-13.35,4.37-20.06a97.86,97.86,0,0,0,1.31-10,22.19,22.19,0,0,0-.08-4.59,3.35,3.35,0,0,0-.1-.43l0-.2-.06-.11,0-.12c0-.12-.13-.4-.19-.6s-.11-.44-.16-.66a3.69,3.69,0,0,1-.05-.55,11.27,11.27,0,0,1,.4-3.5,34.62,34.62,0,0,1,2-5.32q1.12-2.48,2.37-4.82c1.65-3.14,3.43-6.16,5.24-9.15,3.66-6,7.46-11.74,11.5-17.5Z"/></g></g></svg>