<?xml version="1.0" encoding="utf-8"?>
<!-- Generator: Adobe Illustrator 22.1.0, SVG Export Plug-In . SVG Version: 6.00 Build 0)  -->
<svg version="1.1" id="Слой_1" xmlns="http://www.w3.org/2000/svg" xmlns:xlink="http://www.w3.org/1999/xlink" x="0px" y="0px"
	 viewBox="0 0 53.9 53.4" enable-background="new 0 0 53.9 53.4" xml:space="preserve">
<title>2_1</title>
<polygon points="14.1,37.4 8,43.9 0,41.1 9,31 "/>
<polygon points="14.9,39.6 21.6,44.5 12,53.4 9.1,45.1 "/>
<polygon points="37.1,39.6 43,43.9 40.4,53.4 31.1,45 "/>
<polygon points="31.8,19.7 32.9,28.7 26.7,24.4 20.5,28.2 21.4,19.8 16.8,15.5 22.4,15.5 26.5,8.6 30.3,15.4 36.5,15.4 "/>
<path d="M12.8,6.8v19.3l13.7,14.7l13.8-14.4V6.8C38.3,5.8,24.7,0,12.8,6.8z M34.2,30.8l-7.5-5.2l-7.3,4.5l1-9.9l-6-5.8h7.5l4.7-7.8
	l4.3,7.8H39l-6.2,5.7L34.2,30.8z"/>
<path d="M9.1,5.4v22.9L27,46.5l16.9-18.3V5.4C43.9,5.4,28.5-6.7,9.1,5.4z M41.3,26.8L26.5,42.3L11.8,26.5V6.2l0.3-0.2
	c13.4-7.9,28.8-0.1,29,0l0.3,0.1V26.8z"/>
<polygon points="53.9,41 45,43.9 39,38.1 43,31.6 "/>
<g id="Слой_2_1_">
	<g id="Слой_2-2">
		<polygon points="31.8,19.7 32.9,28.7 26.7,24.4 20.5,28.2 21.4,19.8 16.8,15.5 22.4,15.5 26.5,8.6 30.3,15.4 36.5,15.4 		"/>
		<path d="M12.8,6.8v19.3l13.7,14.7l13.8-14.4V6.8C38.3,5.8,24.7,0,12.8,6.8z M34.2,30.8l-7.5-5.2l-7.3,4.5l1-9.9l-6-5.8h7.5
			l4.7-7.8l4.3,7.8H39l-6.2,5.7L34.2,30.8z"/>
		<path d="M9.1,5.4v22.9L27,46.5l16.9-18.3V5.4C43.9,5.4,28.5-6.7,9.1,5.4z M41.3,26.8L26.5,42.3L11.8,26.5V6.2l0.3-0.2
			c13.4-7.9,28.8-0.1,29,0l0.3,0.1V26.8z"/>
		<polygon points="14.1,37.4 8,43.9 0,41.1 9,31 		"/>
		<polygon points="21.6,44.5 12,53.4 9.1,45.1 14.9,39.6 		"/>
		<polygon points="43,43.9 40.4,53.4 31.1,45 37.1,39.6 		"/>
		<polygon points="53.9,41 45,43.9 39,38.1 43,31.6 		"/>
	</g>
</g>
</svg>
