<?xml version="1.0" encoding="utf-8"?>
<!-- Generator: Adobe Illustrator 22.1.0, SVG Export Plug-In . SVG Version: 6.00 Build 0)  -->
<svg version="1.1" id="Слой_1" xmlns="http://www.w3.org/2000/svg" xmlns:xlink="http://www.w3.org/1999/xlink" x="0px" y="0px"
	 viewBox="0 0 33 55" enable-background="new 0 0 33 55" xml:space="preserve">
<title>3</title>
<g id="Слой_2_1_">
	<g id="Слой_2-2">
		<polygon points="23.8,31.8 23.8,55 16.5,46.4 8.9,55 8.9,32.4 12.1,32.4 16.1,36.3 20.7,31.8 		"/>
		<polygon points="20,18.6 20.8,23.1 16.8,21 12.8,23.2 13.5,18.7 10.1,15.6 14.6,14.8 16.6,10.7 18.7,14.8 23.2,15.4 		"/>
		<path d="M16.7,5.6c-6.3,0-11.4,5-11.5,11.3c0,6.3,5,11.4,11.3,11.5c6.3,0,11.4-5,11.5-11.3V17C28,10.7,22.9,5.7,16.7,5.6z
			 M21.5,24l-4.8-2.4l-4.7,2.5l0.8-5.3l-3.9-3.7l5.3-0.8l2.3-4.8l2.4,4.7l5.3,0.7l-3.8,3.8L21.5,24z"/>
		<path d="M33,12.6l-5-3.9l-1-5.6h-6.3L17.4,0l-4.3,3.9L7.1,2.4L5.1,9L0,12.3L2,17l-2,4.5l4.8,3.6L5.1,31l6.9-0.8l4.5,3.7l4-3.9
			l7.3,0.9l0.9-6.1l4.3-3.5l-2.1-4.3L33,12.6z M16.7,28.9c-6.6,0-11.9-5.3-11.9-11.9c0-6.6,5.3-11.9,11.9-11.9S28.5,10.4,28.5,17
			C28.5,23.6,23.2,28.9,16.7,28.9z"/>
		<polygon points="20,18.6 20.8,23.1 16.8,21 12.8,23.2 13.5,18.7 10.1,15.6 14.6,14.8 16.6,10.7 18.7,14.8 23.2,15.4 		"/>
	</g>
</g>
</svg>
