<svg xmlns="http://www.w3.org/2000/svg" height="512pt" version="1.1" viewBox="-91 0 512 512.00002" width="512pt">
<g id="surface1">
<path d="M 150.066406 420.058594 L 150.066406 496.992188 C 150.066406 505.394531 156.667969 512 165.070312 512 C 173.476562 512 180.078125 505.394531 180.078125 496.992188 L 180.078125 420.058594 C 175.277344 420.660156 170.171875 420.960938 165.070312 420.960938 C 159.96875 420.960938 154.867188 420.660156 150.066406 420.058594 Z M 150.066406 420.058594 " style=" stroke:none;fill-rule:nonzero;fill:rgb(0%,0%,0%);fill-opacity:1;" />
<path d="M 154.265625 4.277344 C 147.964844 10.878906 0 167.949219 0 255.886719 C 0 341.726562 66.027344 412.554688 150.066406 420.058594 L 150.066406 352.140625 L 64.421875 266.5 C 58.5625 260.636719 58.5625 251.140625 64.421875 245.277344 C 70.285156 239.417969 79.78125 239.417969 85.644531 245.277344 L 150.066406 309.703125 L 150.066406 262.101562 L 94.4375 206.472656 C 88.574219 200.613281 88.574219 191.113281 94.4375 185.253906 C 100.300781 179.390625 109.796875 179.390625 115.65625 185.253906 L 150.066406 219.664062 L 150.066406 135.835938 C 150.066406 127.433594 156.667969 120.832031 165.074219 120.832031 C 173.480469 120.832031 180.082031 127.433594 180.082031 135.835938 L 180.082031 219.664062 L 214.492188 185.253906 C 220.351562 179.390625 229.847656 179.390625 235.710938 185.253906 C 241.574219 191.113281 241.574219 200.613281 235.710938 206.472656 L 180.082031 262.101562 L 180.082031 309.703125 L 244.503906 245.277344 C 250.367188 239.417969 259.863281 239.417969 265.726562 245.277344 C 271.585938 251.140625 271.585938 260.636719 265.726562 266.5 L 180.082031 352.140625 L 180.082031 420.058594 C 264.121094 412.554688 330.148438 341.722656 330.148438 255.886719 C 330.148438 167.949219 182.183594 10.878906 175.882812 4.277344 C 170.171875 -1.425781 159.96875 -1.425781 154.265625 4.277344 Z M 154.265625 4.277344 " style=" stroke:none;fill-rule:nonzero;fill:rgb(0%,0%,0%);fill-opacity:1;" />
</g>
</svg>