<?xml version="1.0" encoding="utf-8"?>
<!-- Generator: Adobe Illustrator 22.1.0, SVG Export Plug-In . SVG Version: 6.00 Build 0)  -->
<svg version="1.1" id="Слой_1" xmlns="http://www.w3.org/2000/svg" xmlns:xlink="http://www.w3.org/1999/xlink" x="0px" y="0px"
	 viewBox="0 0 512 512" enable-background="new 0 0 512 512" xml:space="preserve">
<g>
	<path d="M256,512.5c-11.1,0-19.7-8.7-19.7-19.7v-81.2l5.6,0.7c4.5,0.6,9.2,0.8,14.1,0.8c4.9,0,9.6-0.3,14.1-0.8l5.6-0.7v81.2
		C275.7,503.8,267.1,512.5,256,512.5z M246.3,422.7v70.1c0,5.5,4.3,9.7,9.7,9.7c5.5,0,9.7-4.3,9.7-9.7v-70.1
		C259.4,423.2,252.6,423.2,246.3,422.7z"/>
	<path d="M265.7,422.6v-74.3l85.6-85.6c3.8-3.8,3.8-10,0-13.8c-3.8-3.8-10-3.8-13.8,0l-71.8,71.8v-60.9l56.1-56.1
		c1.8-1.8,2.9-4.3,2.9-6.9s-1-5-2.9-6.9c-1.8-1.8-4.3-2.9-6.9-2.9s-5,1-6.9,2.9l-42.3,42.3v-94.4c0-5.5-4.3-9.7-9.7-9.7
		s-9.7,4.3-9.7,9.7v94.4L203.9,190c-1.8-1.8-4.3-2.9-6.9-2.9c-2.6,0-5,1-6.9,2.9c-1.8,1.8-2.9,4.3-2.9,6.9s1,5,2.9,6.9l56.1,56.1
		v60.9L174.4,249c-3.8-3.8-10-3.8-13.8,0c-3.8,3.8-3.8,10,0,13.8l85.6,85.6v74.3l-5.4-0.5c-41.3-3.7-79.7-22.6-107.9-53.4
		c-28.4-30.9-44.1-71-44.1-112.9c0-37.1,25-89.7,74.4-156.5c38.5-52.1,78.1-93.7,78.5-94.1l0.1-0.1c7.5-7.5,20.8-7.5,28.3,0l0.1,0.1
		c0.4,0.4,40,42,78.5,94.1c49.4,66.8,74.4,119.5,74.4,156.5c0,41.9-15.7,82-44.1,112.9c-28.3,30.7-66.6,49.7-107.9,53.4L265.7,422.6
		z M249,12.2C245.7,15.6,98.8,171,98.8,255.9c0,78.7,59.9,146,137.4,155.7v-59.1l-82.7-82.7c-7.7-7.7-7.7-20.2,0-27.9
		c7.7-7.7,20.2-7.7,27.9,0l54.8,54.8v-32.6l-53.2-53.2c-3.7-3.7-5.8-8.7-5.8-14s2.1-10.2,5.8-14c3.7-3.7,8.7-5.8,14-5.8
		c5.3,0,10.2,2.1,14,5.8l25.3,25.3v-70.3c0-11.1,8.7-19.7,19.7-19.7s19.7,8.7,19.7,19.7v70.3L301,183c3.7-3.7,8.7-5.8,14-5.8
		c5.3,0,10.2,2.1,14,5.8c3.7,3.7,5.8,8.7,5.8,14s-2.1,10.2-5.8,14l-53.2,53.2v32.6l54.8-54.8c7.7-7.7,20.2-7.7,27.9,0
		c7.7,7.7,7.7,20.2,0,27.9l-82.7,82.7v59.1c77.5-9.7,137.4-77.1,137.4-155.7C413.2,171,266.3,15.7,263,12.2
		C259.4,8.6,252.6,8.6,249,12.2z"/>
</g>
</svg>
