<svg xmlns="http://www.w3.org/2000/svg" viewBox="0 0 646.61 173.8"><defs><style>.cls-1{font-size:132px;fill:#66401a;font-family:RussoOne-Regular, Russo One;}.cls-2{fill:#fff;}.cls-3{fill:#8b8b8e;}.cls-4{font-size:23px;letter-spacing:1.54em;}.cls-4,.cls-5{fill:#0f5a85;font-family:Bicubik, Bicubik;}.cls-5{font-size:101px;}</style></defs><title>logopaulbau</title><g id="Слой_2" data-name="Слой 2"><g id="Слой_2-2" data-name="Слой 2"><text class="cls-1" transform="translate(0 136.98)"><tspan xml:space="preserve">PAUL   </tspan></text></g><g id="Слой_14" data-name="Слой 14"><rect class="cls-2" x="310.47" y="44.6" width="0.5" height="6"/><rect class="cls-2" x="294.22" y="50.35" width="24" height="0.5"/><rect class="cls-2" x="294.22" y="58.35" width="24" height="0.5"/><rect class="cls-2" x="303.18" y="50.6" width="0.5" height="8"/><rect class="cls-2" x="310.47" y="58.6" width="0.5" height="6"/><rect class="cls-2" x="294.22" y="64.35" width="24" height="0.5"/><rect class="cls-2" x="294.22" y="72.35" width="24" height="0.5"/><rect class="cls-2" x="303.18" y="64.6" width="0.5" height="8"/><rect class="cls-2" x="310.47" y="72.6" width="0.5" height="6"/><rect class="cls-2" x="294.22" y="78.35" width="24" height="0.5"/><rect class="cls-2" x="294.22" y="86.35" width="24" height="0.5"/><rect class="cls-2" x="303.18" y="78.6" width="0.5" height="8"/><rect class="cls-2" x="310.47" y="86.6" width="0.5" height="6"/><rect class="cls-2" x="294.22" y="92.35" width="24" height="0.5"/><rect class="cls-2" x="294.22" y="100.35" width="24" height="0.5"/><rect class="cls-2" x="303.18" y="92.6" width="0.5" height="8"/><rect class="cls-2" x="310.47" y="100.6" width="0.5" height="6"/><rect class="cls-2" x="294.22" y="106.35" width="24" height="0.5"/><rect class="cls-2" x="294.22" y="114.35" width="24" height="0.5"/><rect class="cls-2" x="303.18" y="106.6" width="0.5" height="8"/><rect class="cls-2" x="310.47" y="114.6" width="0.5" height="6"/><rect class="cls-2" x="294.22" y="120.35" width="72" height="0.5"/><rect class="cls-2" x="295.72" y="128.35" width="22.5" height="0.5"/><rect class="cls-2" x="303.18" y="120.6" width="0.5" height="8"/><rect class="cls-2" x="294.22" y="128.35" width="72" height="0.5"/><rect class="cls-2" x="310.47" y="128.6" width="0.5" height="9"/><rect class="cls-2" x="298.97" y="128.6" width="0.5" height="9"/><rect class="cls-2" x="316.34" y="120.6" width="0.5" height="8"/><rect class="cls-2" x="321.72" y="128.6" width="0.5" height="9"/><rect class="cls-2" x="329.97" y="128.6" width="0.5" height="9"/><rect class="cls-2" x="338.91" y="128.6" width="0.5" height="9"/><rect class="cls-2" x="348.09" y="128.6" width="0.5" height="9"/><rect class="cls-2" x="358.16" y="128.6" width="0.5" height="9"/><rect class="cls-2" x="325.63" y="120.6" width="0.5" height="8"/><rect class="cls-2" x="334.72" y="120.6" width="0.5" height="8"/><rect class="cls-2" x="343.55" y="120.6" width="0.5" height="8"/><rect class="cls-2" x="353.05" y="120.6" width="0.5" height="8"/><rect class="cls-2" x="362.88" y="120.6" width="0.5" height="8"/></g><g id="Слой_8" data-name="Слой 8"><polygon class="cls-3" points="380.24 46.01 379.2 43.2 495.72 0 496.25 0.2 610.25 43.2 609.19 46.01 495.71 3.2 380.24 46.01"/></g><g id="Слой_12" data-name="Слой 12"><text class="cls-4" transform="translate(378.77 137.75)">GROUP</text><text class="cls-5" transform="translate(374.22 113.92)">BAU</text></g></g></svg>