<?xml version="1.0" encoding="utf-8"?>
<!-- Generator: Adobe Illustrator 22.1.0, SVG Export Plug-In . SVG Version: 6.00 Build 0)  -->
<svg version="1.1" id="Слой_1" xmlns="http://www.w3.org/2000/svg" xmlns:xlink="http://www.w3.org/1999/xlink" x="0px" y="0px"
	 viewBox="0 0 430.8 506.8" enable-background="new 0 0 430.8 506.8" xml:space="preserve">
<path d="M49.6,506.8L1.9,459.1l40.8-40.8l-41-41l40.3-40.3L0,295.2l42.1-42.1L4,212.5L216.5,0L429,212.6l-40.8,40.8l41.8,41.8
	l-40,40l40.8,40.8l-41.5,41.5l39.3,39.3l-48.3,48.3L215.9,340.6L49.6,506.8z M16,459.1l33.6,33.6l166.2-166.3l164.3,164.3l34.2-34.2
	l-39.3-39.3l41.5-41.5l-40.8-40.8l40-40l-41.8-41.8l40.8-40.8L216.5,14.1L17.9,212.7L56,253.3l-41.9,41.9L56,337.1l-40.3,40.3l41,41
	L16,459.1z"/>
<rect x="7.5" y="144.3" transform="matrix(0.7071 -0.7071 0.7071 0.7071 -60.7575 151.8653)" width="290.9" height="10"/>
<polygon points="55.6,337.5 48.4,330.5 209.5,166.4 251.2,123.9 258.3,130.9 216.6,173.4 "/>
<rect x="293.5" y="52.4" transform="matrix(0.7071 -0.7071 0.7071 0.7071 -32.7204 260.806)" width="10" height="235"/>
<rect x="305.4" y="127.5" transform="matrix(0.7071 -0.7071 0.7071 0.7071 -8.7989 260.8181)" width="10" height="27.2"/>
<rect x="354" y="145.1" transform="matrix(0.707 -0.7072 0.7072 0.707 -28.9 309.3871)" width="10" height="88.9"/>
<rect x="296.1" y="136.3" transform="matrix(0.6964 -0.7176 0.7176 0.6964 -92.1436 293.733)" width="10" height="239"/>
<rect x="7.2" y="310.8" transform="matrix(0.7071 -0.7072 0.7072 0.7071 -178.7112 200.1556)" width="290" height="10"/>
<rect x="296.9" y="217.7" transform="matrix(0.7052 -0.709 0.709 0.7052 -150.277 313.5257)" width="10" height="239.7"/>
<rect x="207.7" y="308.8" transform="matrix(0.7072 -0.707 0.707 0.7072 -152.8782 258.4468)" width="55.8" height="10"/>
</svg>
