<svg xmlns="http://www.w3.org/2000/svg" viewBox="0 0 430.77 506.83"><defs><style>.cls-1{fill:none;stroke:#000;stroke-miterlimit:10;stroke-width:10px;}</style></defs><title>parquet</title><g id="Слой_2" data-name="Слой 2"><g id="Слой_2-2" data-name="Слой 2"><polygon class="cls-1" points="10.95 212.57 216.45 7.07 421.95 212.57 381.2 253.32 422.95 295.07 382.95 335.07 423.7 375.82 382.2 417.32 421.45 456.57 380.2 497.82 215.88 333.51 49.63 499.76 8.95 459.07 49.7 418.32 8.7 377.32 48.95 337.07 7.07 295.2 49.07 253.2 10.95 212.57"/><line class="cls-1" x1="50.07" y1="252.13" x2="255.79" y2="46.41"/><polyline class="cls-1" points="52.01 334.04 213.05 169.9 254.76 127.38"/><line class="cls-1" x1="215.38" y1="86.82" x2="381.54" y2="252.98"/><line class="cls-1" x1="300.83" y1="131.43" x2="320.03" y2="150.63"/><line class="cls-1" x1="327.53" y1="158.14" x2="390.41" y2="221.01"/><line class="cls-1" x1="215.38" y1="172.57" x2="386.86" y2="338.99"/><line class="cls-1" x1="49.7" y1="418.32" x2="254.76" y2="213.24"/><line class="cls-1" x1="216.95" y1="252.98" x2="386.86" y2="421.99"/><line class="cls-1" x1="215.88" y1="333.51" x2="255.31" y2="294.09"/></g></g></svg>