<?xml version="1.0" encoding="utf-8"?>
<!-- Generator: Adobe Illustrator 22.1.0, SVG Export Plug-In . SVG Version: 6.00 Build 0)  -->
<svg version="1.1" id="Слой_1" xmlns="http://www.w3.org/2000/svg" xmlns:xlink="http://www.w3.org/1999/xlink" x="0px" y="0px"
	 viewBox="0 0 45.2 44.9" enable-background="new 0 0 45.2 44.9" xml:space="preserve">
<title>1_1</title>
<g id="Слой_2-2">
	<path d="M35.6,9.5c1.6,1.6,2.6,3.9,2.7,6.4c0,5-4.1,9.1-9.1,9.1s-9.1-4.1-9.1-9.1s4.1-9.1,9.1-9.1C31.7,6.8,34,7.8,35.6,9.5z"/>
	<path d="M45.2,19.2v-6.1h-2.6L40.8,9l1.8-2.3l-4.5-4.5l-2,2.3L33,2.7V0h-7l-0.3,2.4l-2.9,1.7l-2.9-1.7l-4.5,4.4l2.4,2.3L16,12.7h-3
		v6.4h3.2l1.8,3.7l-2.4,1.9l4.4,4.9l2.5-2.3l3.6,1.9v2.8h6l0.1-2.7c0,0,3.3-2.3,3.6-2.3c1,0.7,1.9,1.4,2.8,2.3l4.5-4.7l-1.9-1
		l0.8-4.6H45.2z M29.2,25.9c-5.6,0-10.1-4.5-10.1-10.1S23.6,5.8,29.2,5.8c5.5,0,10,4.5,10.1,10C39.3,21.4,34.8,25.9,29.2,25.9z"/>
	<path d="M18.9,30.1c0,0-8.6,13-12.9,14.4S0,43.4,0,40s14.8-14.1,14.8-14.1L18.9,30.1z"/>
	<path d="M38.3,15.8c0,5-4.1,9.1-9.1,9.1s-9.1-4.1-9.1-9.1s4.1-9.1,9.1-9.1c2.5,0,4.8,1,6.4,2.7C37.2,11.1,38.2,13.3,38.3,15.8z"/>
</g>
</svg>
