<?xml version="1.0" encoding="utf-8"?>
<!-- Generator: Adobe Illustrator 22.1.0, SVG Export Plug-In . SVG Version: 6.00 Build 0)  -->
<svg version="1.1" id="Слой_1" xmlns="http://www.w3.org/2000/svg" xmlns:xlink="http://www.w3.org/1999/xlink" x="0px" y="0px"
	 viewBox="0 0 423.5 391" enable-background="new 0 0 423.5 391" xml:space="preserve">
<path d="M423.5,391l-58.1-43.3L314,383.1l-49.5-34l-50.7,35.1l-49-37.5l-57.7,40.7l-46-40.5L0,390.7V77.5h259.5V0H369v77.5h54.5V391
	z M61.8,334.1l46,40.5l57.3-40.3l49,37.5l50.3-34.9l49.5,34l51.6-35.6l47.9,35.7V87.5H359V10h-89.5v77.5H10v283.8L61.8,334.1z"/>
<rect x="264.5" y="37.5" width="99.5" height="10"/>
<rect x="317.5" y="70" width="46.5" height="10"/>
<polygon points="9.3,190.9 4.7,182.1 60.9,152.9 109.1,176.5 164.1,153 211.9,176.5 267.1,153 314.3,176 364,153 418,176.9 
	414,186.1 364,164 314.2,187 266.9,164 211.6,187.5 163.9,164 108.9,187.5 61.1,164.1 "/>
<rect x="259.5" y="82.5" width="10" height="76"/>
<rect x="359" y="82.5" width="10" height="76"/>
<polygon points="211.4,265.2 162.3,227.6 110,262.5 58.4,227.5 7.7,260.7 2.3,252.3 58.6,215.5 110,250.5 162.7,215.4 211.6,252.8 
	264.6,215.3 314.3,252.8 366.4,215.4 418.8,250.9 413.2,259.1 366.6,227.6 314.2,265.2 264.4,227.7 "/>
<polygon points="309.3,357.8 309.3,181.5 319.3,181.5 319.3,337.2 363.6,302.4 421.1,336.7 415.9,345.3 364.4,314.6 "/>
<path fill="none" stroke="#000000" stroke-width="10" stroke-miterlimit="10" d="M264.5,309"/>
<polygon points="206.8,357.3 206.8,85 216.8,85 216.8,337.7 264.6,302.7 317.3,343.5 311.2,351.5 264.4,315.3 "/>
<polygon points="105,357.1 105,82.5 115,82.5 115,337.9 165.6,302.8 213.5,338.5 207.5,346.5 165.4,315.2 "/>
<polygon points="106.9,351.4 60.6,315.1 7.6,346.8 2.4,338.2 61.4,302.9 113.1,343.6 "/>
<rect x="264.5" y="106.5" width="47" height="10"/>
</svg>
