<svg xmlns="http://www.w3.org/2000/svg" viewBox="0 0 423.5 390.96"><defs><style>.cls-1{fill:none;stroke:#000;stroke-miterlimit:10;stroke-width:10px;}</style></defs><title>roof work</title><g id="Слой_2" data-name="Слой 2"><g id="Слой_2-2" data-name="Слой 2"><polygon class="cls-1" points="5 82.5 264.5 82.5 264.5 5 364 5 364 82.5 418.5 82.5 418.5 381 365.5 341.5 314 377 264.5 343 214 378 165 340.5 107.5 381 61.5 340.5 5 381 5 82.5"/><line class="cls-1" x1="264.5" y1="42.5" x2="364" y2="42.5"/><line class="cls-1" x1="364" y1="75" x2="317.5" y2="75"/><polyline class="cls-1" points="7 186.5 61 158.5 109 182 164 158.5 211.75 182 267 158.5 314.25 181.5 364 158.5 416 181.5"/><line class="cls-1" x1="264.5" y1="82.5" x2="264.5" y2="158.5"/><line class="cls-1" x1="364" y1="82.5" x2="364" y2="158.5"/><polyline class="cls-1" points="5 256.5 58.5 221.5 110 256.5 162.5 221.5 211.5 259 264.5 221.5 314.25 259 366.5 221.5 416 255"/><polyline class="cls-1" points="418.5 341 364 308.5 314.25 347.5 314.25 181.5"/><path class="cls-1" d="M264.5,309"/><polyline class="cls-1" points="314.25 347.5 264.5 309 211.75 347.5 211.75 85"/><polyline class="cls-1" points="210.5 342.5 165.5 309 110 347.5 110 82.5"/><polyline class="cls-1" points="5 342.5 61 309 110 347.5"/><line class="cls-1" x1="264.5" y1="111.5" x2="311.5" y2="111.5"/></g></g></svg>