<?xml version="1.0" encoding="utf-8"?>
<!-- Generator: Adobe Illustrator 22.1.0, SVG Export Plug-In . SVG Version: 6.00 Build 0)  -->
<svg version="1.1" id="Слой_1" xmlns="http://www.w3.org/2000/svg" xmlns:xlink="http://www.w3.org/1999/xlink" x="0px" y="0px"
	 viewBox="0 0 518 513.3" enable-background="new 0 0 518 513.3" xml:space="preserve">
<g>
	<path d="M400.4,177.1L340.3,117l117-117L518,59.5L400.4,177.1z M354.5,117l45.9,45.9L503.8,59.6l-46.4-45.5L354.5,117z"/>
	<path d="M0,513.3l182.7-286.4l107.5,64.2l37.2-26.6v-91.9l43.5-33l6,8l-39.5,30v92.1l-37.8,27l150.1,88.2L0,513.3z M185.9,240.4
		l-163.3,256l401.9-114.8L290.6,303l0,0l-2.6-1.6l0,0l-0.2-0.1L185.9,240.4z"/>
</g>
</svg>
