<?xml version="1.0" encoding="utf-8"?>
<!-- Generator: Adobe Illustrator 22.1.0, SVG Export Plug-In . SVG Version: 6.00 Build 0)  -->
<svg version="1.1" id="Слой_1" xmlns="http://www.w3.org/2000/svg" xmlns:xlink="http://www.w3.org/1999/xlink" x="0px" y="0px"
	 viewBox="0 0 513.6 516.9" enable-background="new 0 0 513.6 516.9" xml:space="preserve">
<g>
	<path d="M490.7,516.9H0V28.8h170.7v160.5h158.7v155.3h161.3V516.9z M10,506.9h470.7V354.6H319.3V199.2H160.7V38.8H10V506.9z"/>
	<polygon points="146.7,174.8 26.3,174.8 26.3,164.8 136.7,164.8 136.7,56.2 146.7,56.2 	"/>
	<polygon points="146.7,333.2 26.3,333.2 26.3,323.2 136.7,323.2 136.7,212.9 146.7,212.9 	"/>
	<polygon points="146.7,493.2 26.3,493.2 26.3,483.2 136.7,483.2 136.7,374.9 146.7,374.9 	"/>
	<rect x="185.7" y="164.8" width="134.7" height="10"/>
	<rect x="185.7" y="132.8" width="134.7" height="10"/>
	<rect x="185.7" y="100.8" width="134.7" height="10"/>
	<rect x="185.7" y="68.8" width="134.7" height="10"/>
	<rect x="185.7" y="36.8" width="134.7" height="10"/>
	<rect x="319.3" y="349.6" width="10" height="162.3"/>
	<rect x="5" y="348.1" width="320.9" height="10"/>
	<polygon points="306.7,333.2 185.7,333.2 185.7,323.2 296.7,323.2 296.7,212.9 306.7,212.9 	"/>
	<polygon points="306.7,493.2 185.7,493.2 185.7,483.2 296.7,483.2 296.7,374.9 306.7,374.9 	"/>
	<polygon points="467.3,493.2 342.4,493.2 342.4,483.2 457.3,483.2 457.3,374.9 467.3,374.9 	"/>
	<polygon points="170.7,511.9 160.7,511.9 160.7,199.2 5,199.2 5,189.2 170.7,189.2 	"/>
	<path d="M445.3,305.2c-8.4,0-16.8-3.2-23.1-9.6l-2.6-2.7v-80.1h10v75.9c8.6,8.3,22.2,8.5,31,0.5v-76.4h10v80.5l-1.3,1.4
		c-0.3,0.3-0.6,0.6-0.8,0.9C462,302,453.6,305.2,445.3,305.2z"/>
	<polygon points="468,230.9 460.9,223.8 469.9,214.9 452.9,214.9 453.7,170.8 501.4,117.7 448.5,20.8 393.6,121.2 438,171.5 
		438,214.9 421,214.9 428.2,223.1 420.8,229.7 398.9,204.9 428,204.9 428,175.3 381.4,122.6 448.5,0 513.6,119.1 463.6,174.7 
		463.1,204.9 494,204.9 	"/>
	<rect x="433" y="168.4" width="25.6" height="10"/>
	<rect x="432.1" y="204.9" width="27.6" height="10"/>
</g>
</svg>
