<svg xmlns="http://www.w3.org/2000/svg" viewBox="0 0 513.58 516.9"><defs><style>.cls-1{fill:none;stroke:#000;stroke-miterlimit:10;stroke-width:10px;}</style></defs><title>tiles</title><g id="Слой_2" data-name="Слой 2"><g id="Слой_2-2" data-name="Слой 2"><polygon class="cls-1" points="5 33.76 5 511.9 485.67 511.9 485.67 349.57 324.33 349.57 324.33 194.24 165.67 194.24 165.67 33.76 5 33.76"/><polyline class="cls-1" points="141.67 56.24 141.67 169.81 26.33 169.81"/><polyline class="cls-1" points="141.67 212.9 141.67 328.24 26.33 328.24"/><polyline class="cls-1" points="141.67 374.9 141.67 488.24 26.33 488.24"/><line class="cls-1" x1="185.67" y1="169.81" x2="320.33" y2="169.81"/><line class="cls-1" x1="185.67" y1="137.81" x2="320.33" y2="137.81"/><line class="cls-1" x1="185.67" y1="105.79" x2="320.33" y2="105.79"/><line class="cls-1" x1="185.67" y1="73.77" x2="320.33" y2="73.77"/><line class="cls-1" x1="185.67" y1="41.76" x2="320.33" y2="41.76"/><line class="cls-1" x1="324.33" y1="511.9" x2="324.33" y2="349.57"/><line class="cls-1" x1="325.9" y1="353.07" x2="5" y2="353.07"/><polyline class="cls-1" points="301.67 212.9 301.67 328.24 185.67 328.24"/><polyline class="cls-1" points="301.67 374.9 301.67 488.24 185.67 488.24"/><polyline class="cls-1" points="462.33 374.9 462.33 488.24 342.37 488.24"/><polyline class="cls-1" points="5 194.24 165.67 194.24 165.67 511.9"/><path class="cls-1" d="M424.5,212.9v78l1.17,1.18a27.66,27.66,0,0,0,39.83-.68h0V212.9"/><polyline class="cls-1" points="424.5 226.4 409.94 209.9 433 209.92 433 173.4 387.5 121.9 448.54 10.42 507.5 118.4 458.63 172.78 458 209.9 481.94 209.9 464.47 227.37"/><line class="cls-1" x1="433" y1="173.4" x2="458.63" y2="173.4"/><line class="cls-1" x1="432.12" y1="209.92" x2="459.75" y2="209.92"/></g></g></svg>