<?xml version="1.0" encoding="utf-8"?>
<!-- Generator: Adobe Illustrator 22.1.0, SVG Export Plug-In . SVG Version: 6.00 Build 0)  -->
<svg version="1.1" id="Слой_1" xmlns="http://www.w3.org/2000/svg" xmlns:xlink="http://www.w3.org/1999/xlink" x="0px" y="0px"
	 viewBox="0 0 602.6 138.3" style="enable-background:new 0 0 602.6 138.3;" xml:space="preserve">
<style type="text/css">
	.st0{fill:#66401A;}
	.st1{fill:#FFFFFF;}
	.st2{fill:#8B8B8E;}
	.st3{fill:#0F5A85;}
</style>
<title>Ресурс 20</title>
<path class="st0" d="M0,45.9h55.4c9.2,0,15.9,2.1,20.1,6.3c4.2,4.2,6.3,10.9,6.3,20.1v13.2c0,9.2-2.1,15.9-6.3,20.1
	c-4.2,4.2-10.9,6.3-20.1,6.3H23.8v26.4H0V45.9z M58.1,72.3c0-5.3-2.6-7.9-7.9-7.9H23.8v29h26.4c5.3,0,7.9-2.6,7.9-7.9V72.3z"/>
<path class="st0" d="M110.2,138.3H84.5l35-92.4h26.4l35,92.4h-25.8l-5.9-16.5h-33L110.2,138.3z M122.1,104.6h21.1l-10.6-31
	L122.1,104.6z"/>
<path class="st0" d="M246.8,44.6h23.8v67.3c0,9.2-2.1,15.9-6.3,20.1c-4.2,4.2-10.9,6.3-20.1,6.3h-30.4c-9.2,0-15.9-2.1-20.1-6.3
	c-4.2-4.2-6.3-10.9-6.3-20.1V44.6h23.8v67.3c0,5.3,2.6,7.9,7.9,7.9h19.8c5.3,0,7.9-2.6,7.9-7.9V44.6z"/>
<g>
	<path class="st0" d="M310.2,119.2h48.2v18.5h-71.9V45.3h23.8V119.2z"/>
	<rect x="302.5" y="45.3" class="st1" width="0.5" height="6"/>
	<rect x="286.3" y="51" class="st1" width="24" height="0.5"/>
	<rect x="286.3" y="59" class="st1" width="24" height="0.5"/>
	<rect x="295.3" y="51.3" class="st1" width="0.5" height="8"/>
	<rect x="302.5" y="59.3" class="st1" width="0.5" height="6"/>
	<rect x="286.3" y="65" class="st1" width="24" height="0.5"/>
	<rect x="286.3" y="73" class="st1" width="24" height="0.5"/>
	<rect x="295.3" y="65.3" class="st1" width="0.5" height="8"/>
	<rect x="302.5" y="73.3" class="st1" width="0.5" height="6"/>
	<rect x="286.3" y="79" class="st1" width="24" height="0.5"/>
	<rect x="286.3" y="87" class="st1" width="24" height="0.5"/>
	<rect x="295.3" y="79.3" class="st1" width="0.5" height="8"/>
	<rect x="302.5" y="87.3" class="st1" width="0.5" height="6"/>
	<rect x="286.3" y="93" class="st1" width="24" height="0.5"/>
	<rect x="286.3" y="101" class="st1" width="24" height="0.5"/>
	<rect x="295.3" y="93.3" class="st1" width="0.5" height="8"/>
	<rect x="302.5" y="101.3" class="st1" width="0.5" height="6"/>
	<rect x="286.3" y="107" class="st1" width="24" height="0.5"/>
	<rect x="286.3" y="115" class="st1" width="24" height="0.5"/>
	<rect x="295.3" y="107.3" class="st1" width="0.5" height="8"/>
	<rect x="302.5" y="115.3" class="st1" width="0.5" height="6"/>
	<rect x="286.3" y="121" class="st1" width="72" height="0.5"/>
	<rect x="287.8" y="129.1" class="st1" width="22.5" height="0.5"/>
	<rect x="295.3" y="121.3" class="st1" width="0.5" height="8"/>
	<rect x="286.3" y="129.1" class="st1" width="72" height="0.5"/>
	<rect x="302.5" y="129.3" class="st1" width="0.5" height="9"/>
	<rect x="291" y="129.3" class="st1" width="0.5" height="9"/>
	<rect x="308.4" y="121.3" class="st1" width="0.5" height="8"/>
	<rect x="313.8" y="129.3" class="st1" width="0.5" height="9"/>
	<rect x="322" y="129.3" class="st1" width="0.5" height="9"/>
	<rect x="331" y="129.3" class="st1" width="0.5" height="9"/>
	<rect x="340.2" y="129.3" class="st1" width="0.5" height="9"/>
	<rect x="350.2" y="129.3" class="st1" width="0.5" height="9"/>
	<rect x="317.7" y="121.3" class="st1" width="0.5" height="8"/>
	<rect x="326.8" y="121.3" class="st1" width="0.5" height="8"/>
	<rect x="335.6" y="121.3" class="st1" width="0.5" height="8"/>
	<rect x="345.1" y="121.3" class="st1" width="0.5" height="8"/>
	<rect x="355" y="121.3" class="st1" width="0.5" height="8"/>
</g>
<polygon class="st2" points="372.3,46 371.3,43.2 487.8,0 488.3,0.2 602.3,43.2 601.3,46 487.8,3.2 "/>
<path class="st3" d="M378.7,129.1h9.2v4.6c0,2.5-2.1,4.6-4.6,4.6h-6.9c-2.5,0-4.6-2.1-4.6-4.6v-6.9c0-2.5,2.1-4.6,4.6-4.6h6.9
	c2.5,0,4.6,2.1,4.6,4.6h-2.3c0-1.3-1-2.3-2.3-2.3h-6.9c-1.3,0-2.3,1-2.3,2.3v6.9c0,1.3,1,2.3,2.3,2.3h6.9c1.3,0,2.3-1,2.3-2.3v-2.3
	h-6.9L378.7,129.1z"/>
<path class="st3" d="M439.9,138.3l-4.6-4.6h-7.6v4.6h-2.3v-16.1h11.5c2.5,0,4.6,2.1,4.6,4.6v2.3c0,2-1.3,3.7-3.2,4.4l3.2,3.2v1.6
	H439.9z M439.2,126.8c0-1.3-1-2.3-2.3-2.3h-9.2v6.9h9.2c1.3,0,2.3-1,2.3-2.3V126.8z"/>
<path class="st3" d="M495,133.7c0,2.5-2.1,4.6-4.6,4.6h-6.9c-2.5,0-4.6-2-4.6-4.6c0,0,0,0,0,0v-6.9c0-2.5,2.1-4.6,4.6-4.6h6.9
	c2.5,0,4.6,2.1,4.6,4.6V133.7z M492.7,126.8c0-1.3-1-2.3-2.3-2.3h-6.9c-1.3,0-2.3,1-2.3,2.3v6.9c0,1.3,1,2.3,2.3,2.3h6.9
	c1.3,0,2.3-1,2.3-2.3V126.8z"/>
<path class="st3" d="M546.3,122.2h2.3v11.5c0,2.5-2.1,4.6-4.6,4.6h-6.9c-2.5,0-4.6-2.1-4.6-4.6v-11.5h2.3v11.5c0,1.3,1,2.3,2.3,2.3
	h6.9c1.3,0,2.3-1,2.3-2.3L546.3,122.2z"/>
<path class="st3" d="M602.5,129.1c0,2.5-2.1,4.6-4.6,4.6h-9.2v4.6h-2.3v-16.1h11.5c2.5,0,4.6,2.1,4.6,4.6V129.1z M600.2,126.8
	c0-1.3-1-2.3-2.3-2.3h-9.2v6.9h9.2c1.3,0,2.3-1,2.3-2.3V126.8z"/>
<path class="st3" d="M371.4,113.9V43.2h50.5c11.1,0.2,20,9.1,20.1,20.2c0.1,5.8-2.4,11.4-6.9,15.2c4.4,3.8,7,9.3,6.9,15.2
	c-0.1,11.1-9.1,20.1-20.2,20.2H371.4z M381.5,73.5h40.4c5.6,0,10.1-4.5,10.1-10.1s-4.5-10.1-10.1-10.1c0,0,0,0,0,0h-40.4V73.5z
	 M381.5,83.6v20.2h40.4c5.6,0,10.1-4.5,10.1-10.1c0-5.6-4.5-10.1-10.1-10.1H381.5z"/>
<path class="st3" d="M521.8,113.9h-10.1V93.7h-50.5v20.2h-10.1V63.4c0.1-11.1,9.1-20.1,20.2-20.2h30.3c10.8,0,19.9,9,20.2,20.2
	V113.9z M471.3,53.3c-5.6,0-10.1,4.5-10.1,10.1v20.2h50.5V63.4c0-5.6-4.5-10.1-10.1-10.1H471.3z"/>
<path class="st3" d="M592.5,43.2h10.1v50.5c-0.1,11.1-9.1,20.1-20.2,20.2h-30.3c-11.1,0-20.2-9.1-20.2-20.2V43.2H542v50.5
	c0,5.6,4.5,10.1,10.1,10.1h30.3c5.6,0,10.1-4.5,10.1-10.1L592.5,43.2z"/>
</svg>
