<svg xmlns="http://www.w3.org/2000/svg" xmlns:xlink="http://www.w3.org/1999/xlink"><defs><style>.cls-1{font-size:132px;fill:#66401a;font-family:RussoOne-Regular, Russo One;}.cls-2{fill:#fff;}.cls-3{fill:#8b8b8e;}.cls-4{font-size:23px;letter-spacing:1.54em;}.cls-4,.cls-5{fill:#0f5a85;font-family:Bicubik, Bicubik;}.cls-5{font-size:101px;}</style></defs><symbol id="broken-cable" viewBox="0 0 499.9 500">
<title>broken-cable</title>
<g>
	<path d="M311.7,272.9l-2.4,0.4c0.2,3.6,0.1,7.2-0.3,10.7c-0.2,1.8-0.6,3.5-0.9,5.2c-0.5,1.7-0.9,3.4-1.5,5.1
		c-1.1,3.3-2.5,6.5-4.3,9.5c-0.4,0.8-0.9,1.5-1.3,2.2c-0.5,0.7-0.9,1.5-1.4,2.2c-0.5,0.6-1,1.3-1.5,2c-0.3,0.4-0.5,0.7-0.8,1
		c0,0.1-0.1,0.1-0.1,0.1c-2.3,1.8-4.3,3.8-6.1,6.1c-1.8,2.3-3.4,4.9-4.6,7.5s-2.3,5.3-3.1,8c-0.3,1.3-0.7,2.7-1,4h-10
		c0.3-1.6,0.6-3.3,0.9-4.9c0.5-2.9,1-5.9,1.4-8.9c0.8-6,1.5-12,2-18l0.4-4.5l0.2-2.4c0-0.9,0-1.6,0-2.4c-0.1-3.2-0.4-6.4-1-9.5
		c-0.5-3.2-1.5-6.3-2.8-9.3c-0.7-1.5-1.6-3-2.6-4.3c-1-1.4-2.4-2.4-3.9-3.2l-0.7,0.9c0.8,1.2,1.3,2.5,1.6,3.9
		c0.3,1.4,0.5,2.7,0.6,4.1c0.2,2.8,0.1,5.7,0,8.5c-0.2,2.8-0.5,5.7-0.8,8.5c-0.1,0.7-0.2,1.4-0.3,2.1v0.1v0.3l-0.1,0.5l-0.2,1.1
		l-0.8,4.4c-1.1,5.9-2,11.8-2.8,17.8c-0.4,2.9-0.7,5.9-1,8.9c-0.2,2.1-0.4,4.2-0.5,6.3h-5.7c-0.2-0.3-0.4-0.6-0.6-0.9
		c-0.7-1.2-1.3-2.4-1.9-3.7c-1.2-2.8-2.2-5.6-3.1-8.4c-0.9-2.9-1.8-5.9-2.5-8.9c-0.4-1.5-0.7-3-1-4.5c-0.3-1.4-0.5-2.9-0.6-4.3v-0.5
		v-0.4c-0.1-0.6,0-1.1-0.1-1.7c0-0.5-0.1-0.9-0.2-1.4c-0.1-0.4-0.2-0.9-0.3-1.3c-0.4-1.6-0.9-3.2-1.3-4.8c-1-3.1-2-6.1-3.2-9.1
		c-2.2-6-4.5-11.8-7-17.7l-1.6,0.5c1.8,6,3.5,12.1,5,18.2c0.8,3,1.5,6.1,2.1,9.1c0.3,1.5,0.5,3,0.7,4.5c0.1,0.4,0.1,0.7,0.1,1
		s0,0.7,0,1c0,0.2,0,0.5,0,0.7l-0.1,0.8v0.7c0,1.7,0,3.4,0.2,5.1c0.1,1.7,0.3,3.3,0.5,4.9c0.4,3.2,0.9,6.4,1.6,9.6
		c0.6,3.3,1.5,6.5,2.4,9.6c0.4,1.2,0.8,2.4,1.3,3.6v72.9c0,0.2-0.1,0.4-0.2,0.6c-0.1,0.4-0.2,0.8-0.3,1.2c-0.3,0.8-0.5,1.6-0.8,2.4
		c-0.6,1.6-1.3,3.1-2,4.7c-1.5,3-3.2,6-5.2,8.7c-4,5.5-9,10.1-14.7,13.8c-5.8,3.6-12.2,6.2-18.9,7.7c-6.8,1.5-13.8,2.2-20.8,2h-0.5
		l-0.5,0.1c-0.5,0.1-1.1,0.2-1.8,0.3c-0.6,0.1-1.3,0.2-1.9,0.2c-1.3,0.1-2.6,0.2-3.9,0.2c-2.6,0.1-5.2,0.1-7.8-0.1
		c-5.2-0.3-10.3-1.2-15.3-2.7c-9.8-2.8-18.5-8.6-24.9-16.5c-3.1-4-5.7-8.5-7.6-13.2l-1.4-3.6c-0.2-0.6-0.4-1.2-0.6-1.8l-0.5-1.9
		c-0.7-2.5-1.3-5.1-1.8-7.6c-0.3-1.3-0.4-2.6-0.6-3.9l-0.5-3.9c-0.2-2.7-0.5-5.4-0.5-8s0-5.3,0-8l0.2-3.4h17v-50h50.9v-5l-0.3-222.7
		v-5h-27.6l0-91.1V0H28.2v96.3H0V329h53.5v50h13.1c0,0.5,0,0.9,0,1.4c0.1,2.2,0.2,4.3,0.3,6.5c0.3,4.3,0.7,8.5,1.3,12.8
		c1.2,8.5,3.1,16.9,5.6,25.2c2.5,8.3,5.9,16.3,10.1,23.9c4.2,7.7,9.4,14.8,15.4,21.2c6.1,6.4,13.1,11.8,20.7,16.2l2.9,1.6l1.4,0.8
		c0.5,0.3,1,0.5,1.5,0.7l6,2.7c4.1,1.6,8.3,2.9,12.5,4s8.5,2,12.8,2.6c1.1,0.2,2.1,0.3,3.2,0.4l3.2,0.3c2.1,0.2,4.3,0.5,6.5,0.5
		l6.4,0.2c1.1,0,2.2,0,3.3,0s2.2-0.1,3.3-0.1c4.4-0.3,8.6-0.8,12.9-1.4c8.5-1.3,16.9-3.4,25.1-6.3c8.2-2.8,16.1-6.6,23.6-11.1
		c7.5-4.6,14.3-10.2,20.3-16.7s11-13.8,14.9-21.7c3.9-7.9,6.8-16.1,8.7-24.7c0.4-2.1,0.8-4.3,1.2-6.4c0.2-1.1,0.4-2.1,0.5-3.2
		l0.3-3.2c0.2-2.2,0.5-4.3,0.7-6.5l0.3-6.5l0.1-3.2v-46.4c0-0.4,0.1-1,0.2-1.6s0.2-1.1,0.3-1.7c0.2-1.1,0.5-2.3,0.9-3.4
		c0.7-2.2,1.5-4.4,2.5-6.5c1-2,2.1-3.9,3.5-5.7c1.3-1.7,2.9-3.2,4.6-4.5l0.6-0.5l0.3-0.4c0.2-0.3,0.3-0.5,0.5-0.8
		c0.1-0.2,0.3-0.5,0.4-0.7c0.3-0.5,0.5-0.9,0.7-1.4c0.5-0.9,0.9-1.8,1.3-2.7c0.4-0.9,0.8-1.8,1.2-2.7s0.7-1.8,1-2.8
		c1.3-3.7,2.3-7.5,2.9-11.4c0.4-1.9,0.7-3.8,0.7-5.8s0.2-3.9,0-5.8C313.1,280.4,312.6,276.6,311.7,272.9z M76.7,369H73h-9.6v-40
		h57.2v40h-13.1l0,0H76.7z M143.5,96.3H38.2V10h105.7L143.5,96.3z M38.2,106.3L38.2,106.3h105.3l0,0h27.7l0.3,212.7h-46h-4.9H63.5
		h-5H10V106.3H38.2z M281.5,391.8l-0.2,6c-0.2,2-0.4,4-0.6,6l-0.3,3c-0.1,1-0.3,2-0.5,3c-0.4,2-0.7,3.9-1.1,5.9
		c-1.7,7.7-4.4,15.2-7.8,22.4c-3.5,7.1-8,13.6-13.3,19.4c-5.4,5.8-11.5,10.8-18.2,15c-6.8,4.2-14,7.6-21.5,10.2
		c-7.6,2.7-15.4,4.6-23.3,5.8c-3.9,0.6-7.9,1.1-11.9,1.3c-1,0-1.9,0-2.9,0.1s-2,0-3,0l-6.1-0.1c-2,0-4-0.3-6-0.5l-3-0.3
		c-1-0.1-2-0.1-3-0.4c-3.9-0.6-7.8-1.4-11.7-2.4c-3.8-1-7.6-2.2-11.3-3.6l-5.4-2.4c-0.4-0.2-0.9-0.4-1.3-0.6l-1.3-0.7l-2.6-1.4
		c-6.8-3.9-13-8.8-18.5-14.5c-10.9-11.3-18.5-25.9-23.2-41.2c-2.4-7.7-4.1-15.6-5.2-23.6c-0.6-4-1-8.1-1.3-12.1c-0.1-2-0.2-4-0.3-6
		c0-0.4,0-0.8,0-1.1h27.2l-0.2,3.3c-0.1,2.9-0.1,5.7,0,8.6s0.4,5.8,0.6,8.7l0.6,4.3c0.2,1.4,0.3,2.9,0.7,4.3c0.5,2.9,1.2,5.8,2,8.6
		l0.6,2.1c0.2,0.7,0.4,1.4,0.7,2.1l1.6,4.2c2.3,5.6,5.4,10.8,9.1,15.6c3.8,4.8,8.3,8.9,13.5,12.2c5.1,3.3,10.6,5.8,16.4,7.6
		c5.7,1.7,11.6,2.7,17.5,3.1c2.9,0.2,5.9,0.2,8.8,0.1c1.4,0,3-0.1,4.4-0.3c0.7-0.1,1.5-0.1,2.2-0.2c0.6-0.1,1.2-0.1,1.9-0.3
		c7.6,0.1,15.2-0.6,22.7-2.3c7.8-1.7,15.2-4.8,21.9-9c6.8-4.3,12.7-9.8,17.5-16.3c2.4-3.2,4.4-6.7,6.2-10.3c0.9-1.8,1.6-3.7,2.4-5.5
		c0.4-1,0.7-1.9,1-2.9c0.2-0.5,0.3-1,0.4-1.5s0.3-1,0.4-1.7l0.1-0.5v-66H282v41.8L281.5,391.8z"/>
	<polygon points="106.8,217.9 59.2,266.5 66.4,273.5 122.6,216 131.3,207.1 118.9,207.5 74.6,208.9 120,160 118.1,158 59.3,210.7 
		49.3,219.6 63,219.2 	"/>
	<path d="M471.3,30.4c-0.6-0.7-1.2-1.4-1.8-2.2C454.2,10.3,431.9,0,408.3,0c-0.1,0-0.2,0-0.3,0h-51.3c-0.1,0-0.2,0-0.3,0
		c-17.1,0-34.1,4.4-49,12.8c-21.5,12.1-47.8,34.3-51.4,71.1v80.4c-2.3,3.4-4.4,6.8-6.6,10.3c-1.8,3-3.6,6-5.2,9.1
		c-0.8,1.6-1.6,3.2-2.4,4.8c-0.8,1.7-1.5,3.5-2,5.3c-0.3,1.1-0.5,2.3-0.4,3.5c0,0.2,0,0.4,0.1,0.6c0,0.2,0.1,0.5,0.2,0.7
		s0.2,0.5,0.2,0.6v0.1l0.1,0.1v0.2c0,0.1,0.1,0.3,0.1,0.4c0.2,1.5,0.2,3.1,0.1,4.6c-0.3,3.4-0.7,6.7-1.3,10
		c-1.2,6.7-2.7,13.4-4.4,20.1l1.5,0.5c2.4-6.5,4.6-13,6.5-19.7c1-3.4,1.8-6.8,2.4-10.3c0.4-1.9,0.5-3.8,0.4-5.7
		c0-0.3-0.1-0.6-0.1-0.9l-0.1-0.4l-0.1-0.5l-0.1-0.5l0,0v-0.1c0.1-0.5,0.2-1.1,0.4-1.6c0.6-1.4,1.3-2.8,2.1-4.2s1.7-2.8,2.6-4.2
		c1.9-2.8,3.9-5.5,5.9-8.2c3.1-4.1,6.3-8.1,9.6-12h8.2c0.4,5.1,0.7,10.4,0.8,15.5c0.1,2.9,0.1,5.9-0.1,8.7c-0.1,1.4-0.2,2.8-0.4,4.2
		c-0.1,0.7-0.2,1.3-0.3,1.9c-0.1,0.5-0.2,0.9-0.4,1.4c0,0.1,0.1,0-0.2,0.4c-0.2,0.2-0.3,0.5-0.5,0.8l-0.3,0.7l-0.3,0.7
		c-0.3,0.8-0.5,1.7-0.6,2.6c-0.3,1.6-0.4,3.2-0.4,4.8c-0.1,3.1,0.1,6.2,0.4,9.3s0.9,6.1,1.7,9.1c0.4,1.5,0.9,3,1.5,4.4
		c0.6,1.5,1.5,3,2.7,4.1l1.4-1.4c-0.8-1.1-1.4-2.3-1.7-3.6c-0.4-1.4-0.7-2.8-0.9-4.2c-0.4-2.9-0.6-5.8-0.6-8.7s0.2-5.8,0.5-8.6
		c0.2-1.4,0.5-2.7,0.8-4c0.2-0.6,0.4-1.2,0.6-1.7l0.2-0.3l0.2-0.3c0.2-0.2,0.4-0.5,0.6-0.8c0.6-0.9,1-1.8,1.3-2.8
		c0.3-0.8,0.5-1.6,0.7-2.5c0.4-1.6,0.7-3.2,0.9-4.7c0.5-3.1,0.8-6.2,1.1-9.2c0.5-5.3,0.8-10.5,1-15.8h4.8c2.3,4.6,4.4,9.3,6.3,14
		c1.1,2.8,2.1,5.6,2.9,8.4c0.9,2.7,1.4,5.5,1.7,8.4c0.2,3.2,0.6,6.4,1.3,9.5c0.6,3.1,1.4,6.1,2.3,9.2c0.9,3,2,6,3.4,8.8
		c0.7,1.4,1.5,2.8,2.4,4.1c0.5,0.7,1,1.3,1.6,1.9c0.6,0.6,1.3,1.1,2.1,1.4l0.5-1c-1.2-0.8-2.1-1.9-2.7-3.2c-0.7-1.3-1.3-2.7-1.7-4.1
		c-0.9-2.9-1.7-5.8-2.2-8.8s-0.9-6-1.1-9s-0.3-5.9-0.1-8.9c0.1-3.3-0.1-6.6-0.7-9.9c-0.5-3.2-1.2-6.3-2-9.3c-1-4-2.2-7.8-3.5-11.7
		l0-0.2l0.3-63.2c-0.1-18.9,8.1-36.8,22.6-48.9c7.1-5.9,14.5-9.2,21.9-9.7h68.1c0.7,0,11,0.5,21.6,6c14.4,7.5,22.3,20.4,23.4,38.5
		L456,486.4v10h43.9v-384C500,82.7,489.9,53.6,471.3,30.4z M489.9,486.4H466l0.2-397.1V89c-1.7-27.3-16.6-40.6-28.8-46.9
		c-13-6.7-25.5-7.1-26.1-7.1h-68.4h-0.3c-9.6,0.6-18.9,4.7-27.8,12c-16.8,14.1-26.4,34.7-26.2,56.6V157h-22.7V84.6
		c3.3-32.4,27-52.2,46.4-63.1c13.5-7.6,28.9-11.6,44.4-11.5H408c0.1,0,0.2,0,0.3,0c20.7,0,40.2,9,53.6,24.7c0.6,0.7,1.1,1.4,1.7,2
		c17.1,21.4,26.5,48.3,26.3,75.7V486.4z"/>
</g>
</symbol><symbol id="calitate" viewBox="0 0 53.9 53.4">
<title>2_1</title>
<polygon points="14.1,37.4 8,43.9 0,41.1 9,31 "/>
<polygon points="14.9,39.6 21.6,44.5 12,53.4 9.1,45.1 "/>
<polygon points="37.1,39.6 43,43.9 40.4,53.4 31.1,45 "/>
<polygon points="31.8,19.7 32.9,28.7 26.7,24.4 20.5,28.2 21.4,19.8 16.8,15.5 22.4,15.5 26.5,8.6 30.3,15.4 36.5,15.4 "/>
<path d="M12.8,6.8v19.3l13.7,14.7l13.8-14.4V6.8C38.3,5.8,24.7,0,12.8,6.8z M34.2,30.8l-7.5-5.2l-7.3,4.5l1-9.9l-6-5.8h7.5l4.7-7.8
	l4.3,7.8H39l-6.2,5.7L34.2,30.8z"/>
<path d="M9.1,5.4v22.9L27,46.5l16.9-18.3V5.4C43.9,5.4,28.5-6.7,9.1,5.4z M41.3,26.8L26.5,42.3L11.8,26.5V6.2l0.3-0.2
	c13.4-7.9,28.8-0.1,29,0l0.3,0.1V26.8z"/>
<polygon points="53.9,41 45,43.9 39,38.1 43,31.6 "/>
<g id="&#x421;&#x43B;&#x43E;&#x439;_2_1_">
	<g id="&#x421;&#x43B;&#x43E;&#x439;_2-2">
		<polygon points="31.8,19.7 32.9,28.7 26.7,24.4 20.5,28.2 21.4,19.8 16.8,15.5 22.4,15.5 26.5,8.6 30.3,15.4 36.5,15.4 		"/>
		<path d="M12.8,6.8v19.3l13.7,14.7l13.8-14.4V6.8C38.3,5.8,24.7,0,12.8,6.8z M34.2,30.8l-7.5-5.2l-7.3,4.5l1-9.9l-6-5.8h7.5
			l4.7-7.8l4.3,7.8H39l-6.2,5.7L34.2,30.8z"/>
		<path d="M9.1,5.4v22.9L27,46.5l16.9-18.3V5.4C43.9,5.4,28.5-6.7,9.1,5.4z M41.3,26.8L26.5,42.3L11.8,26.5V6.2l0.3-0.2
			c13.4-7.9,28.8-0.1,29,0l0.3,0.1V26.8z"/>
		<polygon points="14.1,37.4 8,43.9 0,41.1 9,31 		"/>
		<polygon points="21.6,44.5 12,53.4 9.1,45.1 14.9,39.6 		"/>
		<polygon points="43,43.9 40.4,53.4 31.1,45 37.1,39.6 		"/>
		<polygon points="53.9,41 45,43.9 39,38.1 43,31.6 		"/>
	</g>
</g>
</symbol><symbol id="call-answer" viewBox="0 0 348.077 348.077">
<g>
	<g>
		<g>
			<path d="M340.273,275.083l-53.755-53.761c-10.707-10.664-28.438-10.34-39.518,0.744l-27.082,27.076
				c-1.711-0.943-3.482-1.928-5.344-2.973c-17.102-9.476-40.509-22.464-65.14-47.113c-24.704-24.701-37.704-48.144-47.209-65.257
				c-1.003-1.813-1.964-3.561-2.913-5.221l18.176-18.149l8.936-8.947c11.097-11.1,11.403-28.826,0.721-39.521L73.39,8.194
				C62.708-2.486,44.969-2.162,33.872,8.938l-15.15,15.237l0.414,0.411c-5.08,6.482-9.325,13.958-12.484,22.02
				C3.74,54.28,1.927,61.603,1.098,68.941C-6,127.785,20.89,181.564,93.866,254.541c100.875,100.868,182.167,93.248,185.674,92.876
				c7.638-0.913,14.958-2.738,22.397-5.627c7.992-3.122,15.463-7.361,21.941-12.43l0.331,0.294l15.348-15.029
				C350.631,303.527,350.95,285.795,340.273,275.083z"/>
		</g>
	</g>
</g>
<g>
</g>
<g>
</g>
<g>
</g>
<g>
</g>
<g>
</g>
<g>
</g>
<g>
</g>
<g>
</g>
<g>
</g>
<g>
</g>
<g>
</g>
<g>
</g>
<g>
</g>
<g>
</g>
<g>
</g>
</symbol><symbol id="envelope" viewBox="0 0 511.626 511.626">
<g>
	<g>
		<path d="M49.106,178.729c6.472,4.567,25.981,18.131,58.528,40.685c32.548,22.554,57.482,39.92,74.803,52.099
			c1.903,1.335,5.946,4.237,12.131,8.71c6.186,4.476,11.326,8.093,15.416,10.852c4.093,2.758,9.041,5.852,14.849,9.277
			c5.806,3.422,11.279,5.996,16.418,7.7c5.14,1.718,9.898,2.569,14.275,2.569h0.287h0.288c4.377,0,9.137-0.852,14.277-2.569
			c5.137-1.704,10.615-4.281,16.416-7.7c5.804-3.429,10.752-6.52,14.845-9.277c4.093-2.759,9.229-6.376,15.417-10.852
			c6.184-4.477,10.232-7.375,12.135-8.71c17.508-12.179,62.051-43.11,133.615-92.79c13.894-9.703,25.502-21.411,34.827-35.116
			c9.332-13.699,13.993-28.07,13.993-43.105c0-12.564-4.523-23.319-13.565-32.264c-9.041-8.947-19.749-13.418-32.117-13.418H45.679
			c-14.655,0-25.933,4.948-33.832,14.844C3.949,79.562,0,91.934,0,106.779c0,11.991,5.236,24.985,15.703,38.974
			C26.169,159.743,37.307,170.736,49.106,178.729z"/>
		<path d="M483.072,209.275c-62.424,42.251-109.824,75.087-142.177,98.501c-10.849,7.991-19.65,14.229-26.409,18.699
			c-6.759,4.473-15.748,9.041-26.98,13.702c-11.228,4.668-21.692,6.995-31.401,6.995h-0.291h-0.287
			c-9.707,0-20.177-2.327-31.405-6.995c-11.228-4.661-20.223-9.229-26.98-13.702c-6.755-4.47-15.559-10.708-26.407-18.699
			c-25.697-18.842-72.995-51.68-141.896-98.501C17.987,202.047,8.375,193.762,0,184.437v226.685c0,12.57,4.471,23.319,13.418,32.265
			c8.945,8.949,19.701,13.422,32.264,13.422h420.266c12.56,0,23.315-4.473,32.261-13.422c8.949-8.949,13.418-19.694,13.418-32.265
			V184.437C503.441,193.569,493.927,201.854,483.072,209.275z"/>
	</g>
</g>
<g>
</g>
<g>
</g>
<g>
</g>
<g>
</g>
<g>
</g>
<g>
</g>
<g>
</g>
<g>
</g>
<g>
</g>
<g>
</g>
<g>
</g>
<g>
</g>
<g>
</g>
<g>
</g>
<g>
</g>
</symbol><symbol id="facebook-logo" viewBox="0 0 96.124 96.123">
<g>
	<path d="M72.089,0.02L59.624,0C45.62,0,36.57,9.285,36.57,23.656v10.907H24.037c-1.083,0-1.96,0.878-1.96,1.961v15.803
		c0,1.083,0.878,1.96,1.96,1.96h12.533v39.876c0,1.083,0.877,1.96,1.96,1.96h16.352c1.083,0,1.96-0.878,1.96-1.96V54.287h14.654
		c1.083,0,1.96-0.877,1.96-1.96l0.006-15.803c0-0.52-0.207-1.018-0.574-1.386c-0.367-0.368-0.867-0.575-1.387-0.575H56.842v-9.246
		c0-4.444,1.059-6.7,6.848-6.7l8.397-0.003c1.082,0,1.959-0.878,1.959-1.96V1.98C74.046,0.899,73.17,0.022,72.089,0.02z"/>
</g>
<g>
</g>
<g>
</g>
<g>
</g>
<g>
</g>
<g>
</g>
<g>
</g>
<g>
</g>
<g>
</g>
<g>
</g>
<g>
</g>
<g>
</g>
<g>
</g>
<g>
</g>
<g>
</g>
<g>
</g>
</symbol><symbol id="first" viewBox="0 0 33 55">
<title>3</title>
<g id="&#x421;&#x43B;&#x43E;&#x439;_2_1_">
	<g id="&#x421;&#x43B;&#x43E;&#x439;_2-2">
		<polygon points="23.8,31.8 23.8,55 16.5,46.4 8.9,55 8.9,32.4 12.1,32.4 16.1,36.3 20.7,31.8 		"/>
		<polygon points="20,18.6 20.8,23.1 16.8,21 12.8,23.2 13.5,18.7 10.1,15.6 14.6,14.8 16.6,10.7 18.7,14.8 23.2,15.4 		"/>
		<path d="M16.7,5.6c-6.3,0-11.4,5-11.5,11.3c0,6.3,5,11.4,11.3,11.5c6.3,0,11.4-5,11.5-11.3V17C28,10.7,22.9,5.7,16.7,5.6z
			 M21.5,24l-4.8-2.4l-4.7,2.5l0.8-5.3l-3.9-3.7l5.3-0.8l2.3-4.8l2.4,4.7l5.3,0.7l-3.8,3.8L21.5,24z"/>
		<path d="M33,12.6l-5-3.9l-1-5.6h-6.3L17.4,0l-4.3,3.9L7.1,2.4L5.1,9L0,12.3L2,17l-2,4.5l4.8,3.6L5.1,31l6.9-0.8l4.5,3.7l4-3.9
			l7.3,0.9l0.9-6.1l4.3-3.5l-2.1-4.3L33,12.6z M16.7,28.9c-6.6,0-11.9-5.3-11.9-11.9c0-6.6,5.3-11.9,11.9-11.9S28.5,10.4,28.5,17
			C28.5,23.6,23.2,28.9,16.7,28.9z"/>
		<polygon points="20,18.6 20.8,23.1 16.8,21 12.8,23.2 13.5,18.7 10.1,15.6 14.6,14.8 16.6,10.7 18.7,14.8 23.2,15.4 		"/>
	</g>
</g>
</symbol><symbol id="instagram" viewBox="0 0 512 512"><path d="m437 0h-362c-41.351562 0-75 33.648438-75 75v362c0 41.351562 33.648438 75 75 75h362c41.351562 0 75-33.648438 75-75v-362c0-41.351562-33.648438-75-75-75zm-180 390c-74.441406 0-135-60.558594-135-135s60.558594-135 135-135 135 60.558594 135 135-60.558594 135-135 135zm150-240c-24.8125 0-45-20.1875-45-45s20.1875-45 45-45 45 20.1875 45 45-20.1875 45-45 45zm0 0"/><path d="m407 90c-8.277344 0-15 6.722656-15 15s6.722656 15 15 15 15-6.722656 15-15-6.722656-15-15-15zm0 0"/><path d="m257 150c-57.890625 0-105 47.109375-105 105s47.109375 105 105 105 105-47.109375 105-105-47.109375-105-105-105zm0 0"/></symbol><symbol id="leaf" viewBox="0 0 512 512">
<g>
	<path d="M256,512.5c-11.1,0-19.7-8.7-19.7-19.7v-81.2l5.6,0.7c4.5,0.6,9.2,0.8,14.1,0.8c4.9,0,9.6-0.3,14.1-0.8l5.6-0.7v81.2
		C275.7,503.8,267.1,512.5,256,512.5z M246.3,422.7v70.1c0,5.5,4.3,9.7,9.7,9.7c5.5,0,9.7-4.3,9.7-9.7v-70.1
		C259.4,423.2,252.6,423.2,246.3,422.7z"/>
	<path d="M265.7,422.6v-74.3l85.6-85.6c3.8-3.8,3.8-10,0-13.8c-3.8-3.8-10-3.8-13.8,0l-71.8,71.8v-60.9l56.1-56.1
		c1.8-1.8,2.9-4.3,2.9-6.9s-1-5-2.9-6.9c-1.8-1.8-4.3-2.9-6.9-2.9s-5,1-6.9,2.9l-42.3,42.3v-94.4c0-5.5-4.3-9.7-9.7-9.7
		s-9.7,4.3-9.7,9.7v94.4L203.9,190c-1.8-1.8-4.3-2.9-6.9-2.9c-2.6,0-5,1-6.9,2.9c-1.8,1.8-2.9,4.3-2.9,6.9s1,5,2.9,6.9l56.1,56.1
		v60.9L174.4,249c-3.8-3.8-10-3.8-13.8,0c-3.8,3.8-3.8,10,0,13.8l85.6,85.6v74.3l-5.4-0.5c-41.3-3.7-79.7-22.6-107.9-53.4
		c-28.4-30.9-44.1-71-44.1-112.9c0-37.1,25-89.7,74.4-156.5c38.5-52.1,78.1-93.7,78.5-94.1l0.1-0.1c7.5-7.5,20.8-7.5,28.3,0l0.1,0.1
		c0.4,0.4,40,42,78.5,94.1c49.4,66.8,74.4,119.5,74.4,156.5c0,41.9-15.7,82-44.1,112.9c-28.3,30.7-66.6,49.7-107.9,53.4L265.7,422.6
		z M249,12.2C245.7,15.6,98.8,171,98.8,255.9c0,78.7,59.9,146,137.4,155.7v-59.1l-82.7-82.7c-7.7-7.7-7.7-20.2,0-27.9
		c7.7-7.7,20.2-7.7,27.9,0l54.8,54.8v-32.6l-53.2-53.2c-3.7-3.7-5.8-8.7-5.8-14s2.1-10.2,5.8-14c3.7-3.7,8.7-5.8,14-5.8
		c5.3,0,10.2,2.1,14,5.8l25.3,25.3v-70.3c0-11.1,8.7-19.7,19.7-19.7s19.7,8.7,19.7,19.7v70.3L301,183c3.7-3.7,8.7-5.8,14-5.8
		c5.3,0,10.2,2.1,14,5.8c3.7,3.7,5.8,8.7,5.8,14s-2.1,10.2-5.8,14l-53.2,53.2v32.6l54.8-54.8c7.7-7.7,20.2-7.7,27.9,0
		c7.7,7.7,7.7,20.2,0,27.9l-82.7,82.7v59.1c77.5-9.7,137.4-77.1,137.4-155.7C413.2,171,266.3,15.7,263,12.2
		C259.4,8.6,252.6,8.6,249,12.2z"/>
</g>
</symbol><symbol id="left-arrow" viewBox="0 0 492 492">
<g>
	<g>
		<path d="M7.9,265.1l177.7,177.7c5.1,5.1,11.8,7.9,19,7.9c7.2,0,14-2.8,19-7.9l16.1-16.1c5.1-5.1,7.9-11.8,7.9-19
			c0-7.2-2.8-14.2-7.9-19.3L136.1,284.5h329.3c14.8,0,26.6-11.6,26.6-26.5v-22.8c0-14.9-11.7-27.6-26.6-27.6H134.9l104.8-104.5
			c5.1-5.1,7.9-11.7,7.9-18.9c0-7.2-2.8-13.9-7.9-18.9l-16.1-16.1c-5.1-5.1-11.8-7.8-19-7.8c-7.2,0-14,2.8-19,7.9L7.9,226.9
			C2.8,232,0,238.8,0,246C0,253.2,2.8,260,7.9,265.1z"/>
	</g>
</g>
</symbol><symbol id="logo" viewBox="0 0 646.61 173.8"><title>logopaulbau</title><g id="&#x421;&#x43B;&#x43E;&#x439;_2" data-name="&#x421;&#x43B;&#x43E;&#x439; 2"><g id="&#x421;&#x43B;&#x43E;&#x439;_2-2" data-name="&#x421;&#x43B;&#x43E;&#x439; 2"><text class="cls-1" transform="translate(0 136.98)"><tspan xml:space="preserve">PAUL   </tspan></text></g><g id="&#x421;&#x43B;&#x43E;&#x439;_14" data-name="&#x421;&#x43B;&#x43E;&#x439; 14"><rect class="cls-2" x="310.47" y="44.6" width="0.5" height="6"/><rect class="cls-2" x="294.22" y="50.35" width="24" height="0.5"/><rect class="cls-2" x="294.22" y="58.35" width="24" height="0.5"/><rect class="cls-2" x="303.18" y="50.6" width="0.5" height="8"/><rect class="cls-2" x="310.47" y="58.6" width="0.5" height="6"/><rect class="cls-2" x="294.22" y="64.35" width="24" height="0.5"/><rect class="cls-2" x="294.22" y="72.35" width="24" height="0.5"/><rect class="cls-2" x="303.18" y="64.6" width="0.5" height="8"/><rect class="cls-2" x="310.47" y="72.6" width="0.5" height="6"/><rect class="cls-2" x="294.22" y="78.35" width="24" height="0.5"/><rect class="cls-2" x="294.22" y="86.35" width="24" height="0.5"/><rect class="cls-2" x="303.18" y="78.6" width="0.5" height="8"/><rect class="cls-2" x="310.47" y="86.6" width="0.5" height="6"/><rect class="cls-2" x="294.22" y="92.35" width="24" height="0.5"/><rect class="cls-2" x="294.22" y="100.35" width="24" height="0.5"/><rect class="cls-2" x="303.18" y="92.6" width="0.5" height="8"/><rect class="cls-2" x="310.47" y="100.6" width="0.5" height="6"/><rect class="cls-2" x="294.22" y="106.35" width="24" height="0.5"/><rect class="cls-2" x="294.22" y="114.35" width="24" height="0.5"/><rect class="cls-2" x="303.18" y="106.6" width="0.5" height="8"/><rect class="cls-2" x="310.47" y="114.6" width="0.5" height="6"/><rect class="cls-2" x="294.22" y="120.35" width="72" height="0.5"/><rect class="cls-2" x="295.72" y="128.35" width="22.5" height="0.5"/><rect class="cls-2" x="303.18" y="120.6" width="0.5" height="8"/><rect class="cls-2" x="294.22" y="128.35" width="72" height="0.5"/><rect class="cls-2" x="310.47" y="128.6" width="0.5" height="9"/><rect class="cls-2" x="298.97" y="128.6" width="0.5" height="9"/><rect class="cls-2" x="316.34" y="120.6" width="0.5" height="8"/><rect class="cls-2" x="321.72" y="128.6" width="0.5" height="9"/><rect class="cls-2" x="329.97" y="128.6" width="0.5" height="9"/><rect class="cls-2" x="338.91" y="128.6" width="0.5" height="9"/><rect class="cls-2" x="348.09" y="128.6" width="0.5" height="9"/><rect class="cls-2" x="358.16" y="128.6" width="0.5" height="9"/><rect class="cls-2" x="325.63" y="120.6" width="0.5" height="8"/><rect class="cls-2" x="334.72" y="120.6" width="0.5" height="8"/><rect class="cls-2" x="343.55" y="120.6" width="0.5" height="8"/><rect class="cls-2" x="353.05" y="120.6" width="0.5" height="8"/><rect class="cls-2" x="362.88" y="120.6" width="0.5" height="8"/></g><g id="&#x421;&#x43B;&#x43E;&#x439;_8" data-name="&#x421;&#x43B;&#x43E;&#x439; 8"><polygon class="cls-3" points="380.24 46.01 379.2 43.2 495.72 0 496.25 0.2 610.25 43.2 609.19 46.01 495.71 3.2 380.24 46.01"/></g><g id="&#x421;&#x43B;&#x43E;&#x439;_12" data-name="&#x421;&#x43B;&#x43E;&#x439; 12"><text class="cls-4" transform="translate(378.77 137.75)">GROUP</text><text class="cls-5" transform="translate(374.22 113.92)">BAU</text></g></g></symbol><symbol id="paint-roller" viewBox="0 0 202.5 223">
<g>
	<path d="M102.3,223h-39v-73.5h17.3V123l117-59V36.5h-35.8V68H0V0h160.4l1.3,31.5h40.8V67l-117,59v23.6h16.8V223z M68.3,218h29
		v-63.4H82.9v-0.1H68.3V218z M5,63h151.8V34l-1.2-29H5V63z"/>
</g>
</symbol><symbol id="parquet" viewBox="0 0 430.8 506.8">
<path d="M49.6,506.8L1.9,459.1l40.8-40.8l-41-41l40.3-40.3L0,295.2l42.1-42.1L4,212.5L216.5,0L429,212.6l-40.8,40.8l41.8,41.8
	l-40,40l40.8,40.8l-41.5,41.5l39.3,39.3l-48.3,48.3L215.9,340.6L49.6,506.8z M16,459.1l33.6,33.6l166.2-166.3l164.3,164.3l34.2-34.2
	l-39.3-39.3l41.5-41.5l-40.8-40.8l40-40l-41.8-41.8l40.8-40.8L216.5,14.1L17.9,212.7L56,253.3l-41.9,41.9L56,337.1l-40.3,40.3l41,41
	L16,459.1z"/>
<rect x="7.5" y="144.3" transform="matrix(0.7071 -0.7071 0.7071 0.7071 -60.7575 151.8653)" width="290.9" height="10"/>
<polygon points="55.6,337.5 48.4,330.5 209.5,166.4 251.2,123.9 258.3,130.9 216.6,173.4 "/>
<rect x="293.5" y="52.4" transform="matrix(0.7071 -0.7071 0.7071 0.7071 -32.7204 260.806)" width="10" height="235"/>
<rect x="305.4" y="127.5" transform="matrix(0.7071 -0.7071 0.7071 0.7071 -8.7989 260.8181)" width="10" height="27.2"/>
<rect x="354" y="145.1" transform="matrix(0.707 -0.7072 0.7072 0.707 -28.9 309.3871)" width="10" height="88.9"/>
<rect x="296.1" y="136.3" transform="matrix(0.6964 -0.7176 0.7176 0.6964 -92.1436 293.733)" width="10" height="239"/>
<rect x="7.2" y="310.8" transform="matrix(0.7071 -0.7072 0.7072 0.7071 -178.7112 200.1556)" width="290" height="10"/>
<rect x="296.9" y="217.7" transform="matrix(0.7052 -0.709 0.709 0.7052 -150.277 313.5257)" width="10" height="239.7"/>
<rect x="207.7" y="308.8" transform="matrix(0.7072 -0.707 0.707 0.7072 -152.8782 258.4468)" width="55.8" height="10"/>
</symbol><symbol id="placeholder" viewBox="0 0 54.757 54.757">
<path d="M40.94,5.617C37.318,1.995,32.502,0,27.38,0c-5.123,0-9.938,1.995-13.56,5.617c-6.703,6.702-7.536,19.312-1.804,26.952
	L27.38,54.757L42.721,32.6C48.476,24.929,47.643,12.319,40.94,5.617z M27.557,26c-3.859,0-7-3.141-7-7s3.141-7,7-7s7,3.141,7,7
	S31.416,26,27.557,26z"/>
<g>
</g>
<g>
</g>
<g>
</g>
<g>
</g>
<g>
</g>
<g>
</g>
<g>
</g>
<g>
</g>
<g>
</g>
<g>
</g>
<g>
</g>
<g>
</g>
<g>
</g>
<g>
</g>
<g>
</g>
</symbol><symbol id="rapid" viewBox="0 0 45.2 44.9">
<title>1_1</title>
<g id="&#x421;&#x43B;&#x43E;&#x439;_2-2">
	<path d="M35.6,9.5c1.6,1.6,2.6,3.9,2.7,6.4c0,5-4.1,9.1-9.1,9.1s-9.1-4.1-9.1-9.1s4.1-9.1,9.1-9.1C31.7,6.8,34,7.8,35.6,9.5z"/>
	<path d="M45.2,19.2v-6.1h-2.6L40.8,9l1.8-2.3l-4.5-4.5l-2,2.3L33,2.7V0h-7l-0.3,2.4l-2.9,1.7l-2.9-1.7l-4.5,4.4l2.4,2.3L16,12.7h-3
		v6.4h3.2l1.8,3.7l-2.4,1.9l4.4,4.9l2.5-2.3l3.6,1.9v2.8h6l0.1-2.7c0,0,3.3-2.3,3.6-2.3c1,0.7,1.9,1.4,2.8,2.3l4.5-4.7l-1.9-1
		l0.8-4.6H45.2z M29.2,25.9c-5.6,0-10.1-4.5-10.1-10.1S23.6,5.8,29.2,5.8c5.5,0,10,4.5,10.1,10C39.3,21.4,34.8,25.9,29.2,25.9z"/>
	<path d="M18.9,30.1c0,0-8.6,13-12.9,14.4S0,43.4,0,40s14.8-14.1,14.8-14.1L18.9,30.1z"/>
	<path d="M38.3,15.8c0,5-4.1,9.1-9.1,9.1s-9.1-4.1-9.1-9.1s4.1-9.1,9.1-9.1c2.5,0,4.8,1,6.4,2.7C37.2,11.1,38.2,13.3,38.3,15.8z"/>
</g>
</symbol><symbol id="right-arrow" viewBox="0 0 492.004 492.004">
<g>
	<g>
		<path d="M484.14,226.886L306.46,49.202c-5.072-5.072-11.832-7.856-19.04-7.856c-7.216,0-13.972,2.788-19.044,7.856l-16.132,16.136
			c-5.068,5.064-7.86,11.828-7.86,19.04c0,7.208,2.792,14.2,7.86,19.264L355.9,207.526H26.58C11.732,207.526,0,219.15,0,234.002
			v22.812c0,14.852,11.732,27.648,26.58,27.648h330.496L252.248,388.926c-5.068,5.072-7.86,11.652-7.86,18.864
			c0,7.204,2.792,13.88,7.86,18.948l16.132,16.084c5.072,5.072,11.828,7.836,19.044,7.836c7.208,0,13.968-2.8,19.04-7.872
			l177.68-177.68c5.084-5.088,7.88-11.88,7.86-19.1C492.02,238.762,489.228,231.966,484.14,226.886z"/>
	</g>
</g>
<g>
</g>
<g>
</g>
<g>
</g>
<g>
</g>
<g>
</g>
<g>
</g>
<g>
</g>
<g>
</g>
<g>
</g>
<g>
</g>
<g>
</g>
<g>
</g>
<g>
</g>
<g>
</g>
<g>
</g>
</symbol><symbol id="roof-work" viewBox="0 0 423.5 391">
<path d="M423.5,391l-58.1-43.3L314,383.1l-49.5-34l-50.7,35.1l-49-37.5l-57.7,40.7l-46-40.5L0,390.7V77.5h259.5V0H369v77.5h54.5V391
	z M61.8,334.1l46,40.5l57.3-40.3l49,37.5l50.3-34.9l49.5,34l51.6-35.6l47.9,35.7V87.5H359V10h-89.5v77.5H10v283.8L61.8,334.1z"/>
<rect x="264.5" y="37.5" width="99.5" height="10"/>
<rect x="317.5" y="70" width="46.5" height="10"/>
<polygon points="9.3,190.9 4.7,182.1 60.9,152.9 109.1,176.5 164.1,153 211.9,176.5 267.1,153 314.3,176 364,153 418,176.9 
	414,186.1 364,164 314.2,187 266.9,164 211.6,187.5 163.9,164 108.9,187.5 61.1,164.1 "/>
<rect x="259.5" y="82.5" width="10" height="76"/>
<rect x="359" y="82.5" width="10" height="76"/>
<polygon points="211.4,265.2 162.3,227.6 110,262.5 58.4,227.5 7.7,260.7 2.3,252.3 58.6,215.5 110,250.5 162.7,215.4 211.6,252.8 
	264.6,215.3 314.3,252.8 366.4,215.4 418.8,250.9 413.2,259.1 366.6,227.6 314.2,265.2 264.4,227.7 "/>
<polygon points="309.3,357.8 309.3,181.5 319.3,181.5 319.3,337.2 363.6,302.4 421.1,336.7 415.9,345.3 364.4,314.6 "/>
<path fill="none" stroke="#000000" stroke-width="10" stroke-miterlimit="10" d="M264.5,309"/>
<polygon points="206.8,357.3 206.8,85 216.8,85 216.8,337.7 264.6,302.7 317.3,343.5 311.2,351.5 264.4,315.3 "/>
<polygon points="105,357.1 105,82.5 115,82.5 115,337.9 165.6,302.8 213.5,338.5 207.5,346.5 165.4,315.2 "/>
<polygon points="106.9,351.4 60.6,315.1 7.6,346.8 2.4,338.2 61.4,302.9 113.1,343.6 "/>
<rect x="264.5" y="106.5" width="47" height="10"/>
</symbol><symbol id="spatula" viewBox="0 0 518 513.3">
<g>
	<path d="M400.4,177.1L340.3,117l117-117L518,59.5L400.4,177.1z M354.5,117l45.9,45.9L503.8,59.6l-46.4-45.5L354.5,117z"/>
	<path d="M0,513.3l182.7-286.4l107.5,64.2l37.2-26.6v-91.9l43.5-33l6,8l-39.5,30v92.1l-37.8,27l150.1,88.2L0,513.3z M185.9,240.4
		l-163.3,256l401.9-114.8L290.6,303l0,0l-2.6-1.6l0,0l-0.2-0.1L185.9,240.4z"/>
</g>
</symbol><symbol id="tiles" viewBox="0 0 513.6 516.9">
<g>
	<path d="M490.7,516.9H0V28.8h170.7v160.5h158.7v155.3h161.3V516.9z M10,506.9h470.7V354.6H319.3V199.2H160.7V38.8H10V506.9z"/>
	<polygon points="146.7,174.8 26.3,174.8 26.3,164.8 136.7,164.8 136.7,56.2 146.7,56.2 	"/>
	<polygon points="146.7,333.2 26.3,333.2 26.3,323.2 136.7,323.2 136.7,212.9 146.7,212.9 	"/>
	<polygon points="146.7,493.2 26.3,493.2 26.3,483.2 136.7,483.2 136.7,374.9 146.7,374.9 	"/>
	<rect x="185.7" y="164.8" width="134.7" height="10"/>
	<rect x="185.7" y="132.8" width="134.7" height="10"/>
	<rect x="185.7" y="100.8" width="134.7" height="10"/>
	<rect x="185.7" y="68.8" width="134.7" height="10"/>
	<rect x="185.7" y="36.8" width="134.7" height="10"/>
	<rect x="319.3" y="349.6" width="10" height="162.3"/>
	<rect x="5" y="348.1" width="320.9" height="10"/>
	<polygon points="306.7,333.2 185.7,333.2 185.7,323.2 296.7,323.2 296.7,212.9 306.7,212.9 	"/>
	<polygon points="306.7,493.2 185.7,493.2 185.7,483.2 296.7,483.2 296.7,374.9 306.7,374.9 	"/>
	<polygon points="467.3,493.2 342.4,493.2 342.4,483.2 457.3,483.2 457.3,374.9 467.3,374.9 	"/>
	<polygon points="170.7,511.9 160.7,511.9 160.7,199.2 5,199.2 5,189.2 170.7,189.2 	"/>
	<path d="M445.3,305.2c-8.4,0-16.8-3.2-23.1-9.6l-2.6-2.7v-80.1h10v75.9c8.6,8.3,22.2,8.5,31,0.5v-76.4h10v80.5l-1.3,1.4
		c-0.3,0.3-0.6,0.6-0.8,0.9C462,302,453.6,305.2,445.3,305.2z"/>
	<polygon points="468,230.9 460.9,223.8 469.9,214.9 452.9,214.9 453.7,170.8 501.4,117.7 448.5,20.8 393.6,121.2 438,171.5 
		438,214.9 421,214.9 428.2,223.1 420.8,229.7 398.9,204.9 428,204.9 428,175.3 381.4,122.6 448.5,0 513.6,119.1 463.6,174.7 
		463.1,204.9 494,204.9 	"/>
	<rect x="433" y="168.4" width="25.6" height="10"/>
	<rect x="432.1" y="204.9" width="27.6" height="10"/>
</g>
</symbol><symbol id="twitter" viewBox="0 0 512 512">
<g>
	<g>
		<path d="M512,97.248c-19.04,8.352-39.328,13.888-60.48,16.576c21.76-12.992,38.368-33.408,46.176-58.016
			c-20.288,12.096-42.688,20.64-66.56,25.408C411.872,60.704,384.416,48,354.464,48c-58.112,0-104.896,47.168-104.896,104.992
			c0,8.32,0.704,16.32,2.432,23.936c-87.264-4.256-164.48-46.08-216.352-109.792c-9.056,15.712-14.368,33.696-14.368,53.056
			c0,36.352,18.72,68.576,46.624,87.232c-16.864-0.32-33.408-5.216-47.424-12.928c0,0.32,0,0.736,0,1.152
			c0,51.008,36.384,93.376,84.096,103.136c-8.544,2.336-17.856,3.456-27.52,3.456c-6.72,0-13.504-0.384-19.872-1.792
			c13.6,41.568,52.192,72.128,98.08,73.12c-35.712,27.936-81.056,44.768-130.144,44.768c-8.608,0-16.864-0.384-25.12-1.44
			C46.496,446.88,101.6,464,161.024,464c193.152,0,298.752-160,298.752-298.688c0-4.64-0.16-9.12-0.384-13.568
			C480.224,136.96,497.728,118.496,512,97.248z"/>
	</g>
</g>
<g>
</g>
<g>
</g>
<g>
</g>
<g>
</g>
<g>
</g>
<g>
</g>
<g>
</g>
<g>
</g>
<g>
</g>
<g>
</g>
<g>
</g>
<g>
</g>
<g>
</g>
<g>
</g>
<g>
</g>
</symbol></svg>