<svg xmlns="http://www.w3.org/2000/svg" xmlns:xlink="http://www.w3.org/1999/xlink"><defs><style>.cls-1{fill:none;stroke:#000;stroke-miterlimit:10;stroke-width:10px;}</style><style>.cls-1{font-size:132px;fill:#66401a;font-family:RussoOne-Regular, Russo One;}.cls-2{fill:#fff;}.cls-3{fill:#8b8b8e;}.cls-4{font-size:23px;letter-spacing:1.54em;}.cls-4,.cls-5{fill:#0f5a85;font-family:Bicubik, Bicubik;}.cls-5{font-size:101px;}</style><style>.cls-1{fill:none;stroke:#000;stroke-miterlimit:10;stroke-width:5px;}</style><style>.cls-1{fill:none;stroke:#000;stroke-miterlimit:10;stroke-width:10px;}</style><style>.cls-1{fill:none;stroke:#000;stroke-miterlimit:10;stroke-width:10px;}</style><style>.cls-1{fill:none;stroke:#000;stroke-miterlimit:10;stroke-width:10px;}</style><style>.cls-1{fill:none;stroke:#000;stroke-miterlimit:10;stroke-width:10px;}</style></defs><symbol id="broken-cable" viewBox="0 0 499.92 500"><title>broken-cable</title><g id="&#x421;&#x43B;&#x43E;&#x439;_2" data-name="&#x421;&#x43B;&#x43E;&#x439; 2"><g id="&#x421;&#x43B;&#x43E;&#x439;_2-2" data-name="&#x421;&#x43B;&#x43E;&#x439; 2"><path d="M286.55,347h-35l5-5v71.2l-.1.45c-.15.7-.27,1.14-.41,1.67s-.28,1-.44,1.49c-.3,1-.63,1.93-1,2.88-.71,1.88-1.49,3.73-2.36,5.53a65.71,65.71,0,0,1-6.17,10.25,63.68,63.68,0,0,1-17.46,16.28,70.41,70.41,0,0,1-21.94,9,96,96,0,0,1-23.19,2.3l1-.08c-.91.16-1.59.24-2.37.34s-1.49.17-2.23.23c-1.48.13-3,.22-4.43.27a84.51,84.51,0,0,1-8.84-.14,78.82,78.82,0,0,1-17.5-3.1,63.66,63.66,0,0,1-16.38-7.56,57,57,0,0,1-13.46-12.23,67.58,67.58,0,0,1-9.05-15.58L108.63,421a19.31,19.31,0,0,1-.69-2.11l-.61-2.13a85.5,85.5,0,0,1-2-8.58c-.34-1.43-.46-2.88-.67-4.32l-.58-4.33c-.19-2.88-.43-5.77-.55-8.66s-.08-5.76,0-8.62l.41-8.57.22-4.63h21.5l-5,5V319h55.93l-5,5-.33-222.72,5,5H143.53l0-5L143.88,5l5,5H33.21l5-5V106.28H5l5-5V324l-5-5H63.46v55l-5-5H76.73l-.2,5.25c-.07,1.8-.06,3.91,0,5.88s.14,4,.28,6c.25,4,.69,8.06,1.25,12.06a153.6,153.6,0,0,0,5.21,23.6C88,437.15,95.54,451.66,106.46,463a82.22,82.22,0,0,0,18.48,14.46l2.57,1.43,1.29.72c.43.23.9.41,1.34.62l5.39,2.42a102.63,102.63,0,0,0,11.3,3.62,109.11,109.11,0,0,0,11.69,2.39c1,.21,2,.25,3,.36l3,.29c2,.17,4,.47,6,.45l6.06.15c1,0,2,.07,3,0s1.95-.07,2.94-.12c4-.23,8-.69,11.94-1.3a131.65,131.65,0,0,0,23.33-5.85,109.59,109.59,0,0,0,21.54-10.23,88.22,88.22,0,0,0,18.22-15,82,82,0,0,0,13.3-19.39,100.68,100.68,0,0,0,7.85-22.37c.42-1.95.72-3.93,1.09-5.89.17-1,.37-2,.51-3l.32-3c.2-2,.46-4,.62-6l.24-6,.12-3V341.73l0-.21c.1-.91.2-1.55.33-2.29s.26-1.42.41-2.12c.29-1.4.65-2.78,1-4.15a54,54,0,0,1,3.08-8,42.17,42.17,0,0,1,4.64-7.53,35.63,35.63,0,0,1,6.51-6.42l-1,1h0c.07-.06.21-.22.33-.36s.25-.29.38-.45c.26-.31.52-.63.77-1,.52-.65,1-1.35,1.5-2s.95-1.42,1.42-2.15.9-1.47,1.32-2.23a55.3,55.3,0,0,0,4.27-9.53c.62-1.65,1-3.36,1.49-5.06.33-1.72.77-3.46.94-5.22a53.62,53.62,0,0,0,.33-10.74l2.38-.4a57.06,57.06,0,0,1,1.59,11.32c.15,1.93,0,3.85,0,5.79s-.31,3.88-.67,5.79a62.44,62.44,0,0,1-2.91,11.37c-.33.93-.7,1.84-1.05,2.77s-.77,1.83-1.19,2.73-.86,1.81-1.34,2.7c-.23.45-.49.9-.74,1.35-.12.22-.26.45-.4.69s-.27.45-.48.76h0l-.33.44-.65.52a25.7,25.7,0,0,0-4.56,4.51,32.18,32.18,0,0,0-3.52,5.73,44.08,44.08,0,0,0-2.49,6.51c-.33,1.13-.62,2.27-.86,3.41-.13.57-.23,1.14-.33,1.71s-.19,1.19-.23,1.57l0-.48v46.9l-.12,3.23-.27,6.47c-.17,2.15-.44,4.3-.66,6.45l-.35,3.22c-.15,1.07-.37,2.14-.55,3.21-.4,2.13-.73,4.28-1.18,6.4a110.67,110.67,0,0,1-8.67,24.69,92.06,92.06,0,0,1-14.9,21.7A98.23,98.23,0,0,1,244.57,481,119.56,119.56,0,0,1,221,492.14a141.63,141.63,0,0,1-25.1,6.3c-4.27.66-8.55,1.15-12.91,1.41-1.09.06-2.18.11-3.3.14s-2.22,0-3.29,0l-6.43-.16c-2.14,0-4.3-.3-6.45-.48l-3.23-.32c-1.08-.12-2.16-.17-3.22-.39A119.1,119.1,0,0,1,144.3,496a112.53,112.53,0,0,1-12.49-4l-6-2.7c-.5-.23-1-.44-1.5-.69l-1.44-.8L120,486.17a92.24,92.24,0,0,1-20.74-16.24,100.69,100.69,0,0,1-15.43-21.19,128.47,128.47,0,0,1-10.07-23.94,163.56,163.56,0,0,1-5.57-25.17c-.6-4.25-1.06-8.52-1.33-12.8q-.22-3.21-.3-6.45c-.05-2.19-.07-4.25,0-6.62l5,5.25H53.46V324l5,5H0V96.28H33.21l-5,5V0H153.9l0,5-.33,96.28-5-5H181.2v5L181.55,324v5H125.61l5-5v55H108.88l5-4.63-.39,8.08c0,2.69,0,5.37,0,8s.34,5.32.51,8l.53,3.93c.2,1.31.29,2.64.61,3.91a75.58,75.58,0,0,0,1.79,7.64l.54,1.88a15.28,15.28,0,0,0,.6,1.85l1.37,3.62a57.63,57.63,0,0,0,7.63,13.16A49.73,49.73,0,0,0,152,450.93a68.86,68.86,0,0,0,15.27,2.69,74.54,74.54,0,0,0,7.83.13c1.3,0,2.61-.12,3.89-.23.65,0,1.28-.13,1.92-.19s1.3-.17,1.76-.25l.52-.09h.47a86.07,86.07,0,0,0,20.77-2,60.41,60.41,0,0,0,18.86-7.67A53.66,53.66,0,0,0,238,429.56a55.72,55.72,0,0,0,5.23-8.69c.74-1.52,1.4-3.08,2-4.65.29-.79.56-1.57.81-2.36.12-.39.24-.78.34-1.17s.21-.82.26-1l-.1,1V337h40Z"/><line class="cls-1" x1="33.21" y1="101.28" x2="148.88" y2="101.28"/><line class="cls-1" x1="73.05" y1="374" x2="107.55" y2="374"/><line class="cls-1" x1="58.46" y1="324" x2="125.61" y2="324"/><polygon points="59.22 266.5 115.47 209 119.2 217.5 62.95 219.23 49.27 219.65 59.29 210.66 118.06 158 120.03 160 66.3 217.8 62.64 209.23 118.89 207.5 131.3 207.12 122.62 216 66.37 273.5 59.22 266.5"/><path d="M261.59,339.67c.11-3,.34-6,.64-9s.63-6,1-8.94q1.16-8.92,2.79-17.79l.83-4.43.21-1.11.11-.55.05-.28,0-.14s0,0,0,0,0,0,0,0c.1-.64.2-1.36.28-2.06.34-2.82.61-5.68.79-8.52a67.44,67.44,0,0,0,.05-8.47,24.13,24.13,0,0,0-.59-4.11,11.73,11.73,0,0,0-1.59-3.86l.7-.9a10.68,10.68,0,0,1,3.93,3.18,21.58,21.58,0,0,1,2.6,4.31,39.57,39.57,0,0,1,2.81,9.32,60.18,60.18,0,0,1,1,9.5c0,.8,0,1.59,0,2.44l-.18,2.42-.37,4.5q-.79,9-2,18c-.42,3-.85,6-1.39,8.93S272.19,338,271.5,341Z"/><path d="M234.36,269.7c2.46,5.84,4.82,11.7,7,17.66,1.1,3,2.18,6,3.15,9.06.47,1.55.93,3.11,1.32,4.75.11.39.17.85.26,1.29s.17.84.21,1.37,0,1.1.05,1.66v.39l0,.47a40.55,40.55,0,0,0,.61,4.31c.28,1.48.6,3,1,4.47.71,3,1.54,6,2.46,8.86a82.72,82.72,0,0,0,3.14,8.44,32,32,0,0,0,1.9,3.69,10,10,0,0,0,1,1.36c.26.3.61.5.27.22l-5.07,8.62c-.38-.26-.75-.53-1.1-.82s-.54-.52-.8-.79a7.42,7.42,0,0,1-.63-.76c-.18-.24-.4-.5-.53-.73a20.07,20.07,0,0,1-1.49-2.67,41.3,41.3,0,0,1-1.91-5,91.07,91.07,0,0,1-2.44-9.63c-.64-3.2-1.16-6.4-1.57-9.62-.2-1.61-.37-3.23-.5-4.88a45.25,45.25,0,0,1-.15-5.12l0-.71.09-.79a6.46,6.46,0,0,1,0-.71c0-.26,0-.66,0-1s0-.67-.09-1.05c-.18-1.46-.45-3-.73-4.48-.6-3-1.33-6.08-2.09-9.12-1.54-6.08-3.25-12.16-5-18.2Z"/><path class="cls-1" d="M456,491.43h38.88V112.35a125,125,0,0,0-27.44-78.81q-.86-1.05-1.74-2.1A75.58,75.58,0,0,0,408,5H356.7a95.39,95.39,0,0,0-46.89,12.14c-20.62,11.63-45.5,32.63-48.93,67.19V162h32.67V103.66A68.32,68.32,0,0,1,318,50.86c7-5.8,15.4-10.23,24.88-10.86h68.33s47,1,50,49.33L461,491.43"/><path d="M296,160.59c2.21,6,4.1,11.92,5.7,18.07.8,3.06,1.51,6.15,2,9.33a44.59,44.59,0,0,1,.73,9.87,63.36,63.36,0,0,0,.1,8.87,88.1,88.1,0,0,0,1.13,9,61.53,61.53,0,0,0,2.17,8.76,27.72,27.72,0,0,0,1.73,4.1,7.85,7.85,0,0,0,2.7,3.18l-.45,1a6.36,6.36,0,0,1-2.1-1.44,13.45,13.45,0,0,1-1.57-1.88,29.57,29.57,0,0,1-2.37-4.14,64.22,64.22,0,0,1-3.35-8.82,92,92,0,0,1-2.29-9.15,68.27,68.27,0,0,1-1.25-9.5,38.9,38.9,0,0,0-1.67-8.37c-.82-2.82-1.83-5.63-2.93-8.42-2.18-5.55-4.75-11.13-7.43-16.38Z"/><path d="M283.29,164.59c-.17,6.14-.5,12.15-1.05,18.24-.28,3-.62,6.09-1.12,9.17-.25,1.54-.54,3.09-.94,4.69a25.46,25.46,0,0,1-.72,2.45,11.87,11.87,0,0,1-1.32,2.77,6.85,6.85,0,0,1-.57.77l-.18.27-.17.35a11.22,11.22,0,0,0-.63,1.72,30.46,30.46,0,0,0-.83,4,61.5,61.5,0,0,0-.55,8.63,60.39,60.39,0,0,0,.62,8.7,31.39,31.39,0,0,0,.91,4.2,10.19,10.19,0,0,0,1.73,3.6l-1.36,1.39a12.06,12.06,0,0,1-2.67-4.14,34,34,0,0,1-1.5-4.43,63.75,63.75,0,0,1-1.69-9.07,65.92,65.92,0,0,1-.44-9.28,35.66,35.66,0,0,1,.44-4.83,16.93,16.93,0,0,1,.63-2.58l.25-.69.33-.73a8,8,0,0,1,.45-.77c.24-.35.14-.27.18-.35a8.24,8.24,0,0,0,.4-1.36c.13-.58.24-1.24.33-1.91.17-1.34.28-2.76.35-4.18.13-2.86.13-5.79.08-8.72-.13-5.85-.47-11.81-1-17.62Z"/><path d="M268.47,163.22c-4.4,5.08-8.74,10.39-12.84,15.76-2,2.7-4,5.42-5.89,8.19-.93,1.38-1.8,2.79-2.62,4.19a29.4,29.4,0,0,0-2.06,4.16,7.78,7.78,0,0,0-.42,1.56s0,.11,0,.09a0,0,0,0,0,0,0s0-.06,0,0l.14.5.13.5.06.44c0,.28.09.6.09.85a26.75,26.75,0,0,1-.45,5.69,101.78,101.78,0,0,1-2.42,10.26c-1.9,6.69-4.1,13.22-6.47,19.71l-1.47-.46c1.68-6.64,3.19-13.35,4.37-20.06a97.86,97.86,0,0,0,1.31-10,22.19,22.19,0,0,0-.08-4.59,3.35,3.35,0,0,0-.1-.43l0-.2-.06-.11,0-.12c0-.12-.13-.4-.19-.6s-.11-.44-.16-.66a3.69,3.69,0,0,1-.05-.55,11.27,11.27,0,0,1,.4-3.5,34.62,34.62,0,0,1,2-5.32q1.12-2.48,2.37-4.82c1.65-3.14,3.43-6.16,5.24-9.15,3.66-6,7.46-11.74,11.5-17.5Z"/></g></g></symbol><symbol id="call-answer" viewBox="0 0 348.077 348.077">
<g>
	<g>
		<g>
			<path d="M340.273,275.083l-53.755-53.761c-10.707-10.664-28.438-10.34-39.518,0.744l-27.082,27.076
				c-1.711-0.943-3.482-1.928-5.344-2.973c-17.102-9.476-40.509-22.464-65.14-47.113c-24.704-24.701-37.704-48.144-47.209-65.257
				c-1.003-1.813-1.964-3.561-2.913-5.221l18.176-18.149l8.936-8.947c11.097-11.1,11.403-28.826,0.721-39.521L73.39,8.194
				C62.708-2.486,44.969-2.162,33.872,8.938l-15.15,15.237l0.414,0.411c-5.08,6.482-9.325,13.958-12.484,22.02
				C3.74,54.28,1.927,61.603,1.098,68.941C-6,127.785,20.89,181.564,93.866,254.541c100.875,100.868,182.167,93.248,185.674,92.876
				c7.638-0.913,14.958-2.738,22.397-5.627c7.992-3.122,15.463-7.361,21.941-12.43l0.331,0.294l15.348-15.029
				C350.631,303.527,350.95,285.795,340.273,275.083z"/>
		</g>
	</g>
</g>
<g>
</g>
<g>
</g>
<g>
</g>
<g>
</g>
<g>
</g>
<g>
</g>
<g>
</g>
<g>
</g>
<g>
</g>
<g>
</g>
<g>
</g>
<g>
</g>
<g>
</g>
<g>
</g>
<g>
</g>
</symbol><symbol id="envelope" viewBox="0 0 511.626 511.626">
<g>
	<g>
		<path d="M49.106,178.729c6.472,4.567,25.981,18.131,58.528,40.685c32.548,22.554,57.482,39.92,74.803,52.099
			c1.903,1.335,5.946,4.237,12.131,8.71c6.186,4.476,11.326,8.093,15.416,10.852c4.093,2.758,9.041,5.852,14.849,9.277
			c5.806,3.422,11.279,5.996,16.418,7.7c5.14,1.718,9.898,2.569,14.275,2.569h0.287h0.288c4.377,0,9.137-0.852,14.277-2.569
			c5.137-1.704,10.615-4.281,16.416-7.7c5.804-3.429,10.752-6.52,14.845-9.277c4.093-2.759,9.229-6.376,15.417-10.852
			c6.184-4.477,10.232-7.375,12.135-8.71c17.508-12.179,62.051-43.11,133.615-92.79c13.894-9.703,25.502-21.411,34.827-35.116
			c9.332-13.699,13.993-28.07,13.993-43.105c0-12.564-4.523-23.319-13.565-32.264c-9.041-8.947-19.749-13.418-32.117-13.418H45.679
			c-14.655,0-25.933,4.948-33.832,14.844C3.949,79.562,0,91.934,0,106.779c0,11.991,5.236,24.985,15.703,38.974
			C26.169,159.743,37.307,170.736,49.106,178.729z"/>
		<path d="M483.072,209.275c-62.424,42.251-109.824,75.087-142.177,98.501c-10.849,7.991-19.65,14.229-26.409,18.699
			c-6.759,4.473-15.748,9.041-26.98,13.702c-11.228,4.668-21.692,6.995-31.401,6.995h-0.291h-0.287
			c-9.707,0-20.177-2.327-31.405-6.995c-11.228-4.661-20.223-9.229-26.98-13.702c-6.755-4.47-15.559-10.708-26.407-18.699
			c-25.697-18.842-72.995-51.68-141.896-98.501C17.987,202.047,8.375,193.762,0,184.437v226.685c0,12.57,4.471,23.319,13.418,32.265
			c8.945,8.949,19.701,13.422,32.264,13.422h420.266c12.56,0,23.315-4.473,32.261-13.422c8.949-8.949,13.418-19.694,13.418-32.265
			V184.437C503.441,193.569,493.927,201.854,483.072,209.275z"/>
	</g>
</g>
<g>
</g>
<g>
</g>
<g>
</g>
<g>
</g>
<g>
</g>
<g>
</g>
<g>
</g>
<g>
</g>
<g>
</g>
<g>
</g>
<g>
</g>
<g>
</g>
<g>
</g>
<g>
</g>
<g>
</g>
</symbol><symbol id="facebook-logo" viewBox="0 0 96.124 96.123">
<g>
	<path d="M72.089,0.02L59.624,0C45.62,0,36.57,9.285,36.57,23.656v10.907H24.037c-1.083,0-1.96,0.878-1.96,1.961v15.803
		c0,1.083,0.878,1.96,1.96,1.96h12.533v39.876c0,1.083,0.877,1.96,1.96,1.96h16.352c1.083,0,1.96-0.878,1.96-1.96V54.287h14.654
		c1.083,0,1.96-0.877,1.96-1.96l0.006-15.803c0-0.52-0.207-1.018-0.574-1.386c-0.367-0.368-0.867-0.575-1.387-0.575H56.842v-9.246
		c0-4.444,1.059-6.7,6.848-6.7l8.397-0.003c1.082,0,1.959-0.878,1.959-1.96V1.98C74.046,0.899,73.17,0.022,72.089,0.02z"/>
</g>
<g>
</g>
<g>
</g>
<g>
</g>
<g>
</g>
<g>
</g>
<g>
</g>
<g>
</g>
<g>
</g>
<g>
</g>
<g>
</g>
<g>
</g>
<g>
</g>
<g>
</g>
<g>
</g>
<g>
</g>
</symbol><symbol id="instagram" viewBox="0 0 512 512"><path d="m437 0h-362c-41.351562 0-75 33.648438-75 75v362c0 41.351562 33.648438 75 75 75h362c41.351562 0 75-33.648438 75-75v-362c0-41.351562-33.648438-75-75-75zm-180 390c-74.441406 0-135-60.558594-135-135s60.558594-135 135-135 135 60.558594 135 135-60.558594 135-135 135zm150-240c-24.8125 0-45-20.1875-45-45s20.1875-45 45-45 45 20.1875 45 45-20.1875 45-45 45zm0 0"/><path d="m407 90c-8.277344 0-15 6.722656-15 15s6.722656 15 15 15 15-6.722656 15-15-6.722656-15-15-15zm0 0"/><path d="m257 150c-57.890625 0-105 47.109375-105 105s47.109375 105 105 105 105-47.109375 105-105-47.109375-105-105-105zm0 0"/></symbol><symbol id="leaf" viewBox="-91 0 512 512.00002">
<g id="surface1">
<path d="M 150.066406 420.058594 L 150.066406 496.992188 C 150.066406 505.394531 156.667969 512 165.070312 512 C 173.476562 512 180.078125 505.394531 180.078125 496.992188 L 180.078125 420.058594 C 175.277344 420.660156 170.171875 420.960938 165.070312 420.960938 C 159.96875 420.960938 154.867188 420.660156 150.066406 420.058594 Z M 150.066406 420.058594 " style=" stroke:none;fill-rule:nonzero;fill:rgb(0%,0%,0%);fill-opacity:1;"/>
<path d="M 154.265625 4.277344 C 147.964844 10.878906 0 167.949219 0 255.886719 C 0 341.726562 66.027344 412.554688 150.066406 420.058594 L 150.066406 352.140625 L 64.421875 266.5 C 58.5625 260.636719 58.5625 251.140625 64.421875 245.277344 C 70.285156 239.417969 79.78125 239.417969 85.644531 245.277344 L 150.066406 309.703125 L 150.066406 262.101562 L 94.4375 206.472656 C 88.574219 200.613281 88.574219 191.113281 94.4375 185.253906 C 100.300781 179.390625 109.796875 179.390625 115.65625 185.253906 L 150.066406 219.664062 L 150.066406 135.835938 C 150.066406 127.433594 156.667969 120.832031 165.074219 120.832031 C 173.480469 120.832031 180.082031 127.433594 180.082031 135.835938 L 180.082031 219.664062 L 214.492188 185.253906 C 220.351562 179.390625 229.847656 179.390625 235.710938 185.253906 C 241.574219 191.113281 241.574219 200.613281 235.710938 206.472656 L 180.082031 262.101562 L 180.082031 309.703125 L 244.503906 245.277344 C 250.367188 239.417969 259.863281 239.417969 265.726562 245.277344 C 271.585938 251.140625 271.585938 260.636719 265.726562 266.5 L 180.082031 352.140625 L 180.082031 420.058594 C 264.121094 412.554688 330.148438 341.722656 330.148438 255.886719 C 330.148438 167.949219 182.183594 10.878906 175.882812 4.277344 C 170.171875 -1.425781 159.96875 -1.425781 154.265625 4.277344 Z M 154.265625 4.277344 " style=" stroke:none;fill-rule:nonzero;fill:rgb(0%,0%,0%);fill-opacity:1;"/>
</g>
</symbol><symbol id="left-arrow" viewBox="0 0 492 492">
<g>
	<g>
		<path d="M7.9,265.1l177.7,177.7c5.1,5.1,11.8,7.9,19,7.9c7.2,0,14-2.8,19-7.9l16.1-16.1c5.1-5.1,7.9-11.8,7.9-19
			c0-7.2-2.8-14.2-7.9-19.3L136.1,284.5h329.3c14.8,0,26.6-11.6,26.6-26.5v-22.8c0-14.9-11.7-27.6-26.6-27.6H134.9l104.8-104.5
			c5.1-5.1,7.9-11.7,7.9-18.9c0-7.2-2.8-13.9-7.9-18.9l-16.1-16.1c-5.1-5.1-11.8-7.8-19-7.8c-7.2,0-14,2.8-19,7.9L7.9,226.9
			C2.8,232,0,238.8,0,246C0,253.2,2.8,260,7.9,265.1z"/>
	</g>
</g>
</symbol><symbol id="logo" viewBox="0 0 646.61 173.8"><title>logopaulbau</title><g id="&#x421;&#x43B;&#x43E;&#x439;_2" data-name="&#x421;&#x43B;&#x43E;&#x439; 2"><g id="&#x421;&#x43B;&#x43E;&#x439;_2-2" data-name="&#x421;&#x43B;&#x43E;&#x439; 2"><text class="cls-1" transform="translate(0 136.98)"><tspan xml:space="preserve">PAUL   </tspan></text></g><g id="&#x421;&#x43B;&#x43E;&#x439;_14" data-name="&#x421;&#x43B;&#x43E;&#x439; 14"><rect class="cls-2" x="310.47" y="44.6" width="0.5" height="6"/><rect class="cls-2" x="294.22" y="50.35" width="24" height="0.5"/><rect class="cls-2" x="294.22" y="58.35" width="24" height="0.5"/><rect class="cls-2" x="303.18" y="50.6" width="0.5" height="8"/><rect class="cls-2" x="310.47" y="58.6" width="0.5" height="6"/><rect class="cls-2" x="294.22" y="64.35" width="24" height="0.5"/><rect class="cls-2" x="294.22" y="72.35" width="24" height="0.5"/><rect class="cls-2" x="303.18" y="64.6" width="0.5" height="8"/><rect class="cls-2" x="310.47" y="72.6" width="0.5" height="6"/><rect class="cls-2" x="294.22" y="78.35" width="24" height="0.5"/><rect class="cls-2" x="294.22" y="86.35" width="24" height="0.5"/><rect class="cls-2" x="303.18" y="78.6" width="0.5" height="8"/><rect class="cls-2" x="310.47" y="86.6" width="0.5" height="6"/><rect class="cls-2" x="294.22" y="92.35" width="24" height="0.5"/><rect class="cls-2" x="294.22" y="100.35" width="24" height="0.5"/><rect class="cls-2" x="303.18" y="92.6" width="0.5" height="8"/><rect class="cls-2" x="310.47" y="100.6" width="0.5" height="6"/><rect class="cls-2" x="294.22" y="106.35" width="24" height="0.5"/><rect class="cls-2" x="294.22" y="114.35" width="24" height="0.5"/><rect class="cls-2" x="303.18" y="106.6" width="0.5" height="8"/><rect class="cls-2" x="310.47" y="114.6" width="0.5" height="6"/><rect class="cls-2" x="294.22" y="120.35" width="72" height="0.5"/><rect class="cls-2" x="295.72" y="128.35" width="22.5" height="0.5"/><rect class="cls-2" x="303.18" y="120.6" width="0.5" height="8"/><rect class="cls-2" x="294.22" y="128.35" width="72" height="0.5"/><rect class="cls-2" x="310.47" y="128.6" width="0.5" height="9"/><rect class="cls-2" x="298.97" y="128.6" width="0.5" height="9"/><rect class="cls-2" x="316.34" y="120.6" width="0.5" height="8"/><rect class="cls-2" x="321.72" y="128.6" width="0.5" height="9"/><rect class="cls-2" x="329.97" y="128.6" width="0.5" height="9"/><rect class="cls-2" x="338.91" y="128.6" width="0.5" height="9"/><rect class="cls-2" x="348.09" y="128.6" width="0.5" height="9"/><rect class="cls-2" x="358.16" y="128.6" width="0.5" height="9"/><rect class="cls-2" x="325.63" y="120.6" width="0.5" height="8"/><rect class="cls-2" x="334.72" y="120.6" width="0.5" height="8"/><rect class="cls-2" x="343.55" y="120.6" width="0.5" height="8"/><rect class="cls-2" x="353.05" y="120.6" width="0.5" height="8"/><rect class="cls-2" x="362.88" y="120.6" width="0.5" height="8"/></g><g id="&#x421;&#x43B;&#x43E;&#x439;_8" data-name="&#x421;&#x43B;&#x43E;&#x439; 8"><polygon class="cls-3" points="380.24 46.01 379.2 43.2 495.72 0 496.25 0.2 610.25 43.2 609.19 46.01 495.71 3.2 380.24 46.01"/></g><g id="&#x421;&#x43B;&#x43E;&#x439;_12" data-name="&#x421;&#x43B;&#x43E;&#x439; 12"><text class="cls-4" transform="translate(378.77 137.75)">GROUP</text><text class="cls-5" transform="translate(374.22 113.92)">BAU</text></g></g></symbol><symbol id="paint-roller" viewBox="0 0 202.5 223"><title>paint-roller</title><g id="&#x421;&#x43B;&#x43E;&#x439;_2" data-name="&#x421;&#x43B;&#x43E;&#x439; 2"><g id="&#x421;&#x43B;&#x43E;&#x439;_2-2" data-name="&#x421;&#x43B;&#x43E;&#x439; 2"><polyline class="cls-1" points="82.88 152.13 99.75 152.13 99.75 220.5 65.75 220.5 65.75 152 83 152 83 124.5 200 65.5 200 34 159.25 34 159.25 65.5 2.5 65.5 2.5 2.5 158 2.5 159.25 34"/></g></g></symbol><symbol id="parquet" viewBox="0 0 430.77 506.83"><title>parquet</title><g id="&#x421;&#x43B;&#x43E;&#x439;_2" data-name="&#x421;&#x43B;&#x43E;&#x439; 2"><g id="&#x421;&#x43B;&#x43E;&#x439;_2-2" data-name="&#x421;&#x43B;&#x43E;&#x439; 2"><polygon class="cls-1" points="10.95 212.57 216.45 7.07 421.95 212.57 381.2 253.32 422.95 295.07 382.95 335.07 423.7 375.82 382.2 417.32 421.45 456.57 380.2 497.82 215.88 333.51 49.63 499.76 8.95 459.07 49.7 418.32 8.7 377.32 48.95 337.07 7.07 295.2 49.07 253.2 10.95 212.57"/><line class="cls-1" x1="50.07" y1="252.13" x2="255.79" y2="46.41"/><polyline class="cls-1" points="52.01 334.04 213.05 169.9 254.76 127.38"/><line class="cls-1" x1="215.38" y1="86.82" x2="381.54" y2="252.98"/><line class="cls-1" x1="300.83" y1="131.43" x2="320.03" y2="150.63"/><line class="cls-1" x1="327.53" y1="158.14" x2="390.41" y2="221.01"/><line class="cls-1" x1="215.38" y1="172.57" x2="386.86" y2="338.99"/><line class="cls-1" x1="49.7" y1="418.32" x2="254.76" y2="213.24"/><line class="cls-1" x1="216.95" y1="252.98" x2="386.86" y2="421.99"/><line class="cls-1" x1="215.88" y1="333.51" x2="255.31" y2="294.09"/></g></g></symbol><symbol id="placeholder" viewBox="0 0 54.757 54.757">
<path d="M40.94,5.617C37.318,1.995,32.502,0,27.38,0c-5.123,0-9.938,1.995-13.56,5.617c-6.703,6.702-7.536,19.312-1.804,26.952
	L27.38,54.757L42.721,32.6C48.476,24.929,47.643,12.319,40.94,5.617z M27.557,26c-3.859,0-7-3.141-7-7s3.141-7,7-7s7,3.141,7,7
	S31.416,26,27.557,26z"/>
<g>
</g>
<g>
</g>
<g>
</g>
<g>
</g>
<g>
</g>
<g>
</g>
<g>
</g>
<g>
</g>
<g>
</g>
<g>
</g>
<g>
</g>
<g>
</g>
<g>
</g>
<g>
</g>
<g>
</g>
</symbol><symbol id="right-arrow" viewBox="0 0 492.004 492.004">
<g>
	<g>
		<path d="M484.14,226.886L306.46,49.202c-5.072-5.072-11.832-7.856-19.04-7.856c-7.216,0-13.972,2.788-19.044,7.856l-16.132,16.136
			c-5.068,5.064-7.86,11.828-7.86,19.04c0,7.208,2.792,14.2,7.86,19.264L355.9,207.526H26.58C11.732,207.526,0,219.15,0,234.002
			v22.812c0,14.852,11.732,27.648,26.58,27.648h330.496L252.248,388.926c-5.068,5.072-7.86,11.652-7.86,18.864
			c0,7.204,2.792,13.88,7.86,18.948l16.132,16.084c5.072,5.072,11.828,7.836,19.044,7.836c7.208,0,13.968-2.8,19.04-7.872
			l177.68-177.68c5.084-5.088,7.88-11.88,7.86-19.1C492.02,238.762,489.228,231.966,484.14,226.886z"/>
	</g>
</g>
<g>
</g>
<g>
</g>
<g>
</g>
<g>
</g>
<g>
</g>
<g>
</g>
<g>
</g>
<g>
</g>
<g>
</g>
<g>
</g>
<g>
</g>
<g>
</g>
<g>
</g>
<g>
</g>
<g>
</g>
</symbol><symbol id="roof-work" viewBox="0 0 423.5 390.96"><title>roof work</title><g id="&#x421;&#x43B;&#x43E;&#x439;_2" data-name="&#x421;&#x43B;&#x43E;&#x439; 2"><g id="&#x421;&#x43B;&#x43E;&#x439;_2-2" data-name="&#x421;&#x43B;&#x43E;&#x439; 2"><polygon class="cls-1" points="5 82.5 264.5 82.5 264.5 5 364 5 364 82.5 418.5 82.5 418.5 381 365.5 341.5 314 377 264.5 343 214 378 165 340.5 107.5 381 61.5 340.5 5 381 5 82.5"/><line class="cls-1" x1="264.5" y1="42.5" x2="364" y2="42.5"/><line class="cls-1" x1="364" y1="75" x2="317.5" y2="75"/><polyline class="cls-1" points="7 186.5 61 158.5 109 182 164 158.5 211.75 182 267 158.5 314.25 181.5 364 158.5 416 181.5"/><line class="cls-1" x1="264.5" y1="82.5" x2="264.5" y2="158.5"/><line class="cls-1" x1="364" y1="82.5" x2="364" y2="158.5"/><polyline class="cls-1" points="5 256.5 58.5 221.5 110 256.5 162.5 221.5 211.5 259 264.5 221.5 314.25 259 366.5 221.5 416 255"/><polyline class="cls-1" points="418.5 341 364 308.5 314.25 347.5 314.25 181.5"/><path class="cls-1" d="M264.5,309"/><polyline class="cls-1" points="314.25 347.5 264.5 309 211.75 347.5 211.75 85"/><polyline class="cls-1" points="210.5 342.5 165.5 309 110 347.5 110 82.5"/><polyline class="cls-1" points="5 342.5 61 309 110 347.5"/><line class="cls-1" x1="264.5" y1="111.5" x2="311.5" y2="111.5"/></g></g></symbol><symbol id="spatula" viewBox="0 0 517.99 513.27"><title>spatula</title><g id="&#x421;&#x43B;&#x43E;&#x439;_2" data-name="&#x421;&#x43B;&#x43E;&#x439; 2"><g id="&#x421;&#x43B;&#x43E;&#x439;_2-2" data-name="&#x421;&#x43B;&#x43E;&#x439; 2"><polygon class="cls-1" points="457.38 7.04 347.38 117.04 400.38 170.04 510.88 59.54 457.38 7.04"/><polyline class="cls-1" points="373.88 143.54 332.38 175.04 332.38 267.04 290.38 297.04 184.28 233.63 11.31 504.84 437.09 383.21 290.51 297.12"/></g></g></symbol><symbol id="tiles" viewBox="0 0 513.58 516.9"><title>tiles</title><g id="&#x421;&#x43B;&#x43E;&#x439;_2" data-name="&#x421;&#x43B;&#x43E;&#x439; 2"><g id="&#x421;&#x43B;&#x43E;&#x439;_2-2" data-name="&#x421;&#x43B;&#x43E;&#x439; 2"><polygon class="cls-1" points="5 33.76 5 511.9 485.67 511.9 485.67 349.57 324.33 349.57 324.33 194.24 165.67 194.24 165.67 33.76 5 33.76"/><polyline class="cls-1" points="141.67 56.24 141.67 169.81 26.33 169.81"/><polyline class="cls-1" points="141.67 212.9 141.67 328.24 26.33 328.24"/><polyline class="cls-1" points="141.67 374.9 141.67 488.24 26.33 488.24"/><line class="cls-1" x1="185.67" y1="169.81" x2="320.33" y2="169.81"/><line class="cls-1" x1="185.67" y1="137.81" x2="320.33" y2="137.81"/><line class="cls-1" x1="185.67" y1="105.79" x2="320.33" y2="105.79"/><line class="cls-1" x1="185.67" y1="73.77" x2="320.33" y2="73.77"/><line class="cls-1" x1="185.67" y1="41.76" x2="320.33" y2="41.76"/><line class="cls-1" x1="324.33" y1="511.9" x2="324.33" y2="349.57"/><line class="cls-1" x1="325.9" y1="353.07" x2="5" y2="353.07"/><polyline class="cls-1" points="301.67 212.9 301.67 328.24 185.67 328.24"/><polyline class="cls-1" points="301.67 374.9 301.67 488.24 185.67 488.24"/><polyline class="cls-1" points="462.33 374.9 462.33 488.24 342.37 488.24"/><polyline class="cls-1" points="5 194.24 165.67 194.24 165.67 511.9"/><path class="cls-1" d="M424.5,212.9v78l1.17,1.18a27.66,27.66,0,0,0,39.83-.68h0V212.9"/><polyline class="cls-1" points="424.5 226.4 409.94 209.9 433 209.92 433 173.4 387.5 121.9 448.54 10.42 507.5 118.4 458.63 172.78 458 209.9 481.94 209.9 464.47 227.37"/><line class="cls-1" x1="433" y1="173.4" x2="458.63" y2="173.4"/><line class="cls-1" x1="432.12" y1="209.92" x2="459.75" y2="209.92"/></g></g></symbol><symbol id="twitter" viewBox="0 0 512 512">
<g>
	<g>
		<path d="M512,97.248c-19.04,8.352-39.328,13.888-60.48,16.576c21.76-12.992,38.368-33.408,46.176-58.016
			c-20.288,12.096-42.688,20.64-66.56,25.408C411.872,60.704,384.416,48,354.464,48c-58.112,0-104.896,47.168-104.896,104.992
			c0,8.32,0.704,16.32,2.432,23.936c-87.264-4.256-164.48-46.08-216.352-109.792c-9.056,15.712-14.368,33.696-14.368,53.056
			c0,36.352,18.72,68.576,46.624,87.232c-16.864-0.32-33.408-5.216-47.424-12.928c0,0.32,0,0.736,0,1.152
			c0,51.008,36.384,93.376,84.096,103.136c-8.544,2.336-17.856,3.456-27.52,3.456c-6.72,0-13.504-0.384-19.872-1.792
			c13.6,41.568,52.192,72.128,98.08,73.12c-35.712,27.936-81.056,44.768-130.144,44.768c-8.608,0-16.864-0.384-25.12-1.44
			C46.496,446.88,101.6,464,161.024,464c193.152,0,298.752-160,298.752-298.688c0-4.64-0.16-9.12-0.384-13.568
			C480.224,136.96,497.728,118.496,512,97.248z"/>
	</g>
</g>
<g>
</g>
<g>
</g>
<g>
</g>
<g>
</g>
<g>
</g>
<g>
</g>
<g>
</g>
<g>
</g>
<g>
</g>
<g>
</g>
<g>
</g>
<g>
</g>
<g>
</g>
<g>
</g>
<g>
</g>
</symbol></svg>